<mxfile host="app.diagrams.net" modified="2024-05-31T07:02:25.296Z" agent="Mozilla/5.0 (Windows NT 10.0; Win64; x64; rv:126.0) Gecko/20100101 Firefox/126.0" etag="FPFlwpLxvoCipNo_uZ8f" version="24.4.8" type="device">
  <diagram id="R2lEEEUBdFMjLlhIrx00" name="Page-1">
    <mxGraphModel dx="1180" dy="2382" grid="1" gridSize="10" guides="1" tooltips="1" connect="1" arrows="1" fold="1" page="1" pageScale="1" pageWidth="850" pageHeight="1100" math="0" shadow="0" extFonts="Permanent Marker^https://fonts.googleapis.com/css?family=Permanent+Marker">
      <root>
        <mxCell id="0" />
        <mxCell id="1" parent="0" />
        <mxCell id="1oH-_9PxXLcQLjHo9UL6-5" value="passenger" style="shape=table;startSize=30;container=1;collapsible=1;childLayout=tableLayout;fixedRows=1;rowLines=0;fontStyle=1;align=center;resizeLast=1;" parent="1" vertex="1">
          <mxGeometry x="100" y="30" width="280" height="270" as="geometry" />
        </mxCell>
        <mxCell id="1oH-_9PxXLcQLjHo9UL6-6" value="" style="shape=partialRectangle;collapsible=0;dropTarget=0;pointerEvents=0;fillColor=none;top=0;left=0;bottom=1;right=0;points=[[0,0.5],[1,0.5]];portConstraint=eastwest;" parent="1oH-_9PxXLcQLjHo9UL6-5" vertex="1">
          <mxGeometry y="30" width="280" height="30" as="geometry" />
        </mxCell>
        <mxCell id="1oH-_9PxXLcQLjHo9UL6-7" value="PK" style="shape=partialRectangle;connectable=0;fillColor=none;top=0;left=0;bottom=0;right=0;fontStyle=1;overflow=hidden;" parent="1oH-_9PxXLcQLjHo9UL6-6" vertex="1">
          <mxGeometry width="30" height="30" as="geometry">
            <mxRectangle width="30" height="30" as="alternateBounds" />
          </mxGeometry>
        </mxCell>
        <mxCell id="1oH-_9PxXLcQLjHo9UL6-8" value="id INT NOT NULL" style="shape=partialRectangle;connectable=0;fillColor=none;top=0;left=0;bottom=0;right=0;align=left;spacingLeft=6;fontStyle=5;overflow=hidden;" parent="1oH-_9PxXLcQLjHo9UL6-6" vertex="1">
          <mxGeometry x="30" width="250" height="30" as="geometry">
            <mxRectangle width="250" height="30" as="alternateBounds" />
          </mxGeometry>
        </mxCell>
        <mxCell id="1oH-_9PxXLcQLjHo9UL6-9" value="" style="shape=partialRectangle;collapsible=0;dropTarget=0;pointerEvents=0;fillColor=none;top=0;left=0;bottom=0;right=0;points=[[0,0.5],[1,0.5]];portConstraint=eastwest;" parent="1oH-_9PxXLcQLjHo9UL6-5" vertex="1">
          <mxGeometry y="60" width="280" height="30" as="geometry" />
        </mxCell>
        <mxCell id="1oH-_9PxXLcQLjHo9UL6-10" value="" style="shape=partialRectangle;connectable=0;fillColor=none;top=0;left=0;bottom=0;right=0;editable=1;overflow=hidden;" parent="1oH-_9PxXLcQLjHo9UL6-9" vertex="1">
          <mxGeometry width="30" height="30" as="geometry">
            <mxRectangle width="30" height="30" as="alternateBounds" />
          </mxGeometry>
        </mxCell>
        <mxCell id="1oH-_9PxXLcQLjHo9UL6-11" value="is_anonymous int not null (0 - false, 1 - true,)" style="shape=partialRectangle;connectable=0;fillColor=none;top=0;left=0;bottom=0;right=0;align=left;spacingLeft=6;overflow=hidden;" parent="1oH-_9PxXLcQLjHo9UL6-9" vertex="1">
          <mxGeometry x="30" width="250" height="30" as="geometry">
            <mxRectangle width="250" height="30" as="alternateBounds" />
          </mxGeometry>
        </mxCell>
        <mxCell id="1oH-_9PxXLcQLjHo9UL6-12" value="" style="shape=partialRectangle;collapsible=0;dropTarget=0;pointerEvents=0;fillColor=none;top=0;left=0;bottom=0;right=0;points=[[0,0.5],[1,0.5]];portConstraint=eastwest;" parent="1oH-_9PxXLcQLjHo9UL6-5" vertex="1">
          <mxGeometry y="90" width="280" height="30" as="geometry" />
        </mxCell>
        <mxCell id="1oH-_9PxXLcQLjHo9UL6-13" value="" style="shape=partialRectangle;connectable=0;fillColor=none;top=0;left=0;bottom=0;right=0;editable=1;overflow=hidden;" parent="1oH-_9PxXLcQLjHo9UL6-12" vertex="1">
          <mxGeometry width="30" height="30" as="geometry">
            <mxRectangle width="30" height="30" as="alternateBounds" />
          </mxGeometry>
        </mxCell>
        <mxCell id="1oH-_9PxXLcQLjHo9UL6-14" value="name VARCHAR(255)" style="shape=partialRectangle;connectable=0;fillColor=none;top=0;left=0;bottom=0;right=0;align=left;spacingLeft=6;overflow=hidden;" parent="1oH-_9PxXLcQLjHo9UL6-12" vertex="1">
          <mxGeometry x="30" width="250" height="30" as="geometry">
            <mxRectangle width="250" height="30" as="alternateBounds" />
          </mxGeometry>
        </mxCell>
        <mxCell id="1oH-_9PxXLcQLjHo9UL6-15" value="" style="shape=partialRectangle;collapsible=0;dropTarget=0;pointerEvents=0;fillColor=none;top=0;left=0;bottom=0;right=0;points=[[0,0.5],[1,0.5]];portConstraint=eastwest;" parent="1oH-_9PxXLcQLjHo9UL6-5" vertex="1">
          <mxGeometry y="120" width="280" height="30" as="geometry" />
        </mxCell>
        <mxCell id="1oH-_9PxXLcQLjHo9UL6-16" value="" style="shape=partialRectangle;connectable=0;fillColor=none;top=0;left=0;bottom=0;right=0;editable=1;overflow=hidden;" parent="1oH-_9PxXLcQLjHo9UL6-15" vertex="1">
          <mxGeometry width="30" height="30" as="geometry">
            <mxRectangle width="30" height="30" as="alternateBounds" />
          </mxGeometry>
        </mxCell>
        <mxCell id="1oH-_9PxXLcQLjHo9UL6-17" value="age SHORTINTEGER" style="shape=partialRectangle;connectable=0;fillColor=none;top=0;left=0;bottom=0;right=0;align=left;spacingLeft=6;overflow=hidden;" parent="1oH-_9PxXLcQLjHo9UL6-15" vertex="1">
          <mxGeometry x="30" width="250" height="30" as="geometry">
            <mxRectangle width="250" height="30" as="alternateBounds" />
          </mxGeometry>
        </mxCell>
        <mxCell id="1oH-_9PxXLcQLjHo9UL6-18" value="" style="shape=partialRectangle;collapsible=0;dropTarget=0;pointerEvents=0;fillColor=none;top=0;left=0;bottom=0;right=0;points=[[0,0.5],[1,0.5]];portConstraint=eastwest;" parent="1oH-_9PxXLcQLjHo9UL6-5" vertex="1">
          <mxGeometry y="150" width="280" height="30" as="geometry" />
        </mxCell>
        <mxCell id="1oH-_9PxXLcQLjHo9UL6-19" value="FK" style="shape=partialRectangle;connectable=0;fillColor=none;top=0;left=0;bottom=0;right=0;editable=1;overflow=hidden;" parent="1oH-_9PxXLcQLjHo9UL6-18" vertex="1">
          <mxGeometry width="30" height="30" as="geometry">
            <mxRectangle width="30" height="30" as="alternateBounds" />
          </mxGeometry>
        </mxCell>
        <mxCell id="1oH-_9PxXLcQLjHo9UL6-20" value="home_address_id INT" style="shape=partialRectangle;connectable=0;fillColor=none;top=0;left=0;bottom=0;right=0;align=left;spacingLeft=6;overflow=hidden;" parent="1oH-_9PxXLcQLjHo9UL6-18" vertex="1">
          <mxGeometry x="30" width="250" height="30" as="geometry">
            <mxRectangle width="250" height="30" as="alternateBounds" />
          </mxGeometry>
        </mxCell>
        <mxCell id="1oH-_9PxXLcQLjHo9UL6-113" value="" style="shape=partialRectangle;collapsible=0;dropTarget=0;pointerEvents=0;fillColor=none;top=0;left=0;bottom=0;right=0;points=[[0,0.5],[1,0.5]];portConstraint=eastwest;" parent="1oH-_9PxXLcQLjHo9UL6-5" vertex="1">
          <mxGeometry y="180" width="280" height="30" as="geometry" />
        </mxCell>
        <mxCell id="1oH-_9PxXLcQLjHo9UL6-114" value="" style="shape=partialRectangle;connectable=0;fillColor=none;top=0;left=0;bottom=0;right=0;editable=1;overflow=hidden;" parent="1oH-_9PxXLcQLjHo9UL6-113" vertex="1">
          <mxGeometry width="30" height="30" as="geometry">
            <mxRectangle width="30" height="30" as="alternateBounds" />
          </mxGeometry>
        </mxCell>
        <mxCell id="1oH-_9PxXLcQLjHo9UL6-115" value="phone_number VARCHAR(50) NOT NULL" style="shape=partialRectangle;connectable=0;fillColor=none;top=0;left=0;bottom=0;right=0;align=left;spacingLeft=6;overflow=hidden;" parent="1oH-_9PxXLcQLjHo9UL6-113" vertex="1">
          <mxGeometry x="30" width="250" height="30" as="geometry">
            <mxRectangle width="250" height="30" as="alternateBounds" />
          </mxGeometry>
        </mxCell>
        <mxCell id="1oH-_9PxXLcQLjHo9UL6-119" value="" style="shape=partialRectangle;collapsible=0;dropTarget=0;pointerEvents=0;fillColor=none;top=0;left=0;bottom=0;right=0;points=[[0,0.5],[1,0.5]];portConstraint=eastwest;" parent="1oH-_9PxXLcQLjHo9UL6-5" vertex="1">
          <mxGeometry y="210" width="280" height="30" as="geometry" />
        </mxCell>
        <mxCell id="1oH-_9PxXLcQLjHo9UL6-120" value="" style="shape=partialRectangle;connectable=0;fillColor=none;top=0;left=0;bottom=0;right=0;editable=1;overflow=hidden;" parent="1oH-_9PxXLcQLjHo9UL6-119" vertex="1">
          <mxGeometry width="30" height="30" as="geometry">
            <mxRectangle width="30" height="30" as="alternateBounds" />
          </mxGeometry>
        </mxCell>
        <mxCell id="1oH-_9PxXLcQLjHo9UL6-121" value="is_male int  (0 - false, 1 - true, NULL - &#xa;не определено)" style="shape=partialRectangle;connectable=0;fillColor=none;top=0;left=0;bottom=0;right=0;align=left;spacingLeft=6;overflow=hidden;" parent="1oH-_9PxXLcQLjHo9UL6-119" vertex="1">
          <mxGeometry x="30" width="250" height="30" as="geometry">
            <mxRectangle width="250" height="30" as="alternateBounds" />
          </mxGeometry>
        </mxCell>
        <mxCell id="1oH-_9PxXLcQLjHo9UL6-21" value="address" style="shape=table;startSize=30;container=1;collapsible=1;childLayout=tableLayout;fixedRows=1;rowLines=0;fontStyle=1;align=center;resizeLast=1;" parent="1" vertex="1">
          <mxGeometry x="120" y="500" width="260" height="150" as="geometry" />
        </mxCell>
        <mxCell id="1oH-_9PxXLcQLjHo9UL6-22" value="" style="shape=partialRectangle;collapsible=0;dropTarget=0;pointerEvents=0;fillColor=none;top=0;left=0;bottom=1;right=0;points=[[0,0.5],[1,0.5]];portConstraint=eastwest;" parent="1oH-_9PxXLcQLjHo9UL6-21" vertex="1">
          <mxGeometry y="30" width="260" height="30" as="geometry" />
        </mxCell>
        <mxCell id="1oH-_9PxXLcQLjHo9UL6-23" value="PK" style="shape=partialRectangle;connectable=0;fillColor=none;top=0;left=0;bottom=0;right=0;fontStyle=1;overflow=hidden;" parent="1oH-_9PxXLcQLjHo9UL6-22" vertex="1">
          <mxGeometry width="30" height="30" as="geometry" />
        </mxCell>
        <mxCell id="1oH-_9PxXLcQLjHo9UL6-24" value="id INT NOT NULL" style="shape=partialRectangle;connectable=0;fillColor=none;top=0;left=0;bottom=0;right=0;align=left;spacingLeft=6;fontStyle=5;overflow=hidden;" parent="1oH-_9PxXLcQLjHo9UL6-22" vertex="1">
          <mxGeometry x="30" width="230" height="30" as="geometry" />
        </mxCell>
        <mxCell id="1oH-_9PxXLcQLjHo9UL6-25" value="" style="shape=partialRectangle;collapsible=0;dropTarget=0;pointerEvents=0;fillColor=none;top=0;left=0;bottom=0;right=0;points=[[0,0.5],[1,0.5]];portConstraint=eastwest;" parent="1oH-_9PxXLcQLjHo9UL6-21" vertex="1">
          <mxGeometry y="60" width="260" height="30" as="geometry" />
        </mxCell>
        <mxCell id="1oH-_9PxXLcQLjHo9UL6-26" value="" style="shape=partialRectangle;connectable=0;fillColor=none;top=0;left=0;bottom=0;right=0;editable=1;overflow=hidden;" parent="1oH-_9PxXLcQLjHo9UL6-25" vertex="1">
          <mxGeometry width="30" height="30" as="geometry" />
        </mxCell>
        <mxCell id="1oH-_9PxXLcQLjHo9UL6-27" value="house_number INT NOT NULL" style="shape=partialRectangle;connectable=0;fillColor=none;top=0;left=0;bottom=0;right=0;align=left;spacingLeft=6;overflow=hidden;" parent="1oH-_9PxXLcQLjHo9UL6-25" vertex="1">
          <mxGeometry x="30" width="230" height="30" as="geometry" />
        </mxCell>
        <mxCell id="1oH-_9PxXLcQLjHo9UL6-28" value="" style="shape=partialRectangle;collapsible=0;dropTarget=0;pointerEvents=0;fillColor=none;top=0;left=0;bottom=0;right=0;points=[[0,0.5],[1,0.5]];portConstraint=eastwest;" parent="1oH-_9PxXLcQLjHo9UL6-21" vertex="1">
          <mxGeometry y="90" width="260" height="30" as="geometry" />
        </mxCell>
        <mxCell id="1oH-_9PxXLcQLjHo9UL6-29" value="FK" style="shape=partialRectangle;connectable=0;fillColor=none;top=0;left=0;bottom=0;right=0;editable=1;overflow=hidden;" parent="1oH-_9PxXLcQLjHo9UL6-28" vertex="1">
          <mxGeometry width="30" height="30" as="geometry" />
        </mxCell>
        <mxCell id="1oH-_9PxXLcQLjHo9UL6-30" value="street_id INT NOT NULL" style="shape=partialRectangle;connectable=0;fillColor=none;top=0;left=0;bottom=0;right=0;align=left;spacingLeft=6;overflow=hidden;" parent="1oH-_9PxXLcQLjHo9UL6-28" vertex="1">
          <mxGeometry x="30" width="230" height="30" as="geometry" />
        </mxCell>
        <mxCell id="1oH-_9PxXLcQLjHo9UL6-35" value="" style="edgeStyle=entityRelationEdgeStyle;fontSize=12;html=1;endArrow=ERoneToMany;exitX=1;exitY=0.5;exitDx=0;exitDy=0;entryX=1;entryY=0.5;entryDx=0;entryDy=0;" parent="1" source="1oH-_9PxXLcQLjHo9UL6-22" target="1oH-_9PxXLcQLjHo9UL6-18" edge="1">
          <mxGeometry width="100" height="100" relative="1" as="geometry">
            <mxPoint x="440" y="590" as="sourcePoint" />
            <mxPoint x="540" y="490" as="targetPoint" />
          </mxGeometry>
        </mxCell>
        <mxCell id="1oH-_9PxXLcQLjHo9UL6-40" value="street" style="shape=table;startSize=30;container=1;collapsible=1;childLayout=tableLayout;fixedRows=1;rowLines=0;fontStyle=1;align=center;resizeLast=1;" parent="1" vertex="1">
          <mxGeometry x="120" y="660" width="260" height="150" as="geometry" />
        </mxCell>
        <mxCell id="1oH-_9PxXLcQLjHo9UL6-41" value="" style="shape=partialRectangle;collapsible=0;dropTarget=0;pointerEvents=0;fillColor=none;top=0;left=0;bottom=1;right=0;points=[[0,0.5],[1,0.5]];portConstraint=eastwest;" parent="1oH-_9PxXLcQLjHo9UL6-40" vertex="1">
          <mxGeometry y="30" width="260" height="30" as="geometry" />
        </mxCell>
        <mxCell id="1oH-_9PxXLcQLjHo9UL6-42" value="PK" style="shape=partialRectangle;connectable=0;fillColor=none;top=0;left=0;bottom=0;right=0;fontStyle=1;overflow=hidden;" parent="1oH-_9PxXLcQLjHo9UL6-41" vertex="1">
          <mxGeometry width="30" height="30" as="geometry" />
        </mxCell>
        <mxCell id="1oH-_9PxXLcQLjHo9UL6-43" value="id INT NOT NULL" style="shape=partialRectangle;connectable=0;fillColor=none;top=0;left=0;bottom=0;right=0;align=left;spacingLeft=6;fontStyle=5;overflow=hidden;" parent="1oH-_9PxXLcQLjHo9UL6-41" vertex="1">
          <mxGeometry x="30" width="230" height="30" as="geometry" />
        </mxCell>
        <mxCell id="1oH-_9PxXLcQLjHo9UL6-44" value="" style="shape=partialRectangle;collapsible=0;dropTarget=0;pointerEvents=0;fillColor=none;top=0;left=0;bottom=0;right=0;points=[[0,0.5],[1,0.5]];portConstraint=eastwest;" parent="1oH-_9PxXLcQLjHo9UL6-40" vertex="1">
          <mxGeometry y="60" width="260" height="30" as="geometry" />
        </mxCell>
        <mxCell id="1oH-_9PxXLcQLjHo9UL6-45" value="" style="shape=partialRectangle;connectable=0;fillColor=none;top=0;left=0;bottom=0;right=0;editable=1;overflow=hidden;" parent="1oH-_9PxXLcQLjHo9UL6-44" vertex="1">
          <mxGeometry width="30" height="30" as="geometry" />
        </mxCell>
        <mxCell id="1oH-_9PxXLcQLjHo9UL6-46" value="name VARCHAR(255) NOT NULL" style="shape=partialRectangle;connectable=0;fillColor=none;top=0;left=0;bottom=0;right=0;align=left;spacingLeft=6;overflow=hidden;" parent="1oH-_9PxXLcQLjHo9UL6-44" vertex="1">
          <mxGeometry x="30" width="230" height="30" as="geometry" />
        </mxCell>
        <mxCell id="1oH-_9PxXLcQLjHo9UL6-47" value="" style="shape=partialRectangle;collapsible=0;dropTarget=0;pointerEvents=0;fillColor=none;top=0;left=0;bottom=0;right=0;points=[[0,0.5],[1,0.5]];portConstraint=eastwest;" parent="1oH-_9PxXLcQLjHo9UL6-40" vertex="1">
          <mxGeometry y="90" width="260" height="30" as="geometry" />
        </mxCell>
        <mxCell id="1oH-_9PxXLcQLjHo9UL6-48" value="FK" style="shape=partialRectangle;connectable=0;fillColor=none;top=0;left=0;bottom=0;right=0;editable=1;overflow=hidden;" parent="1oH-_9PxXLcQLjHo9UL6-47" vertex="1">
          <mxGeometry width="30" height="30" as="geometry" />
        </mxCell>
        <mxCell id="1oH-_9PxXLcQLjHo9UL6-49" value="city_id INT NOT NULL" style="shape=partialRectangle;connectable=0;fillColor=none;top=0;left=0;bottom=0;right=0;align=left;spacingLeft=6;overflow=hidden;" parent="1oH-_9PxXLcQLjHo9UL6-47" vertex="1">
          <mxGeometry x="30" width="230" height="30" as="geometry" />
        </mxCell>
        <mxCell id="1oH-_9PxXLcQLjHo9UL6-53" value="" style="edgeStyle=entityRelationEdgeStyle;fontSize=12;html=1;endArrow=ERoneToMany;exitX=1;exitY=0.5;exitDx=0;exitDy=0;entryX=1;entryY=0.5;entryDx=0;entryDy=0;" parent="1" source="1oH-_9PxXLcQLjHo9UL6-41" target="1oH-_9PxXLcQLjHo9UL6-28" edge="1">
          <mxGeometry width="100" height="100" relative="1" as="geometry">
            <mxPoint x="400" y="680" as="sourcePoint" />
            <mxPoint x="500" y="580" as="targetPoint" />
          </mxGeometry>
        </mxCell>
        <mxCell id="1oH-_9PxXLcQLjHo9UL6-55" value="city" style="shape=table;startSize=30;container=1;collapsible=1;childLayout=tableLayout;fixedRows=1;rowLines=0;fontStyle=1;align=center;resizeLast=1;" parent="1" vertex="1">
          <mxGeometry x="120" y="820" width="260" height="150" as="geometry" />
        </mxCell>
        <mxCell id="1oH-_9PxXLcQLjHo9UL6-56" value="" style="shape=partialRectangle;collapsible=0;dropTarget=0;pointerEvents=0;fillColor=none;top=0;left=0;bottom=1;right=0;points=[[0,0.5],[1,0.5]];portConstraint=eastwest;" parent="1oH-_9PxXLcQLjHo9UL6-55" vertex="1">
          <mxGeometry y="30" width="260" height="30" as="geometry" />
        </mxCell>
        <mxCell id="1oH-_9PxXLcQLjHo9UL6-57" value="PK" style="shape=partialRectangle;connectable=0;fillColor=none;top=0;left=0;bottom=0;right=0;fontStyle=1;overflow=hidden;" parent="1oH-_9PxXLcQLjHo9UL6-56" vertex="1">
          <mxGeometry width="30" height="30" as="geometry" />
        </mxCell>
        <mxCell id="1oH-_9PxXLcQLjHo9UL6-58" value="id INT NOT NULL" style="shape=partialRectangle;connectable=0;fillColor=none;top=0;left=0;bottom=0;right=0;align=left;spacingLeft=6;fontStyle=5;overflow=hidden;" parent="1oH-_9PxXLcQLjHo9UL6-56" vertex="1">
          <mxGeometry x="30" width="230" height="30" as="geometry" />
        </mxCell>
        <mxCell id="1oH-_9PxXLcQLjHo9UL6-59" value="" style="shape=partialRectangle;collapsible=0;dropTarget=0;pointerEvents=0;fillColor=none;top=0;left=0;bottom=0;right=0;points=[[0,0.5],[1,0.5]];portConstraint=eastwest;" parent="1oH-_9PxXLcQLjHo9UL6-55" vertex="1">
          <mxGeometry y="60" width="260" height="30" as="geometry" />
        </mxCell>
        <mxCell id="1oH-_9PxXLcQLjHo9UL6-60" value="" style="shape=partialRectangle;connectable=0;fillColor=none;top=0;left=0;bottom=0;right=0;editable=1;overflow=hidden;" parent="1oH-_9PxXLcQLjHo9UL6-59" vertex="1">
          <mxGeometry width="30" height="30" as="geometry" />
        </mxCell>
        <mxCell id="1oH-_9PxXLcQLjHo9UL6-61" value="name VARCHAR(255) NOT NULL" style="shape=partialRectangle;connectable=0;fillColor=none;top=0;left=0;bottom=0;right=0;align=left;spacingLeft=6;overflow=hidden;" parent="1oH-_9PxXLcQLjHo9UL6-59" vertex="1">
          <mxGeometry x="30" width="230" height="30" as="geometry" />
        </mxCell>
        <mxCell id="1oH-_9PxXLcQLjHo9UL6-62" value="" style="shape=partialRectangle;collapsible=0;dropTarget=0;pointerEvents=0;fillColor=none;top=0;left=0;bottom=0;right=0;points=[[0,0.5],[1,0.5]];portConstraint=eastwest;" parent="1oH-_9PxXLcQLjHo9UL6-55" vertex="1">
          <mxGeometry y="90" width="260" height="30" as="geometry" />
        </mxCell>
        <mxCell id="1oH-_9PxXLcQLjHo9UL6-63" value="FK" style="shape=partialRectangle;connectable=0;fillColor=none;top=0;left=0;bottom=0;right=0;editable=1;overflow=hidden;" parent="1oH-_9PxXLcQLjHo9UL6-62" vertex="1">
          <mxGeometry width="30" height="30" as="geometry" />
        </mxCell>
        <mxCell id="1oH-_9PxXLcQLjHo9UL6-64" value="country_id INT NOT NULL" style="shape=partialRectangle;connectable=0;fillColor=none;top=0;left=0;bottom=0;right=0;align=left;spacingLeft=6;overflow=hidden;" parent="1oH-_9PxXLcQLjHo9UL6-62" vertex="1">
          <mxGeometry x="30" width="230" height="30" as="geometry" />
        </mxCell>
        <mxCell id="1oH-_9PxXLcQLjHo9UL6-68" value="" style="edgeStyle=entityRelationEdgeStyle;fontSize=12;html=1;endArrow=ERoneToMany;entryX=1;entryY=0.5;entryDx=0;entryDy=0;exitX=1;exitY=0.5;exitDx=0;exitDy=0;" parent="1" source="1oH-_9PxXLcQLjHo9UL6-56" target="1oH-_9PxXLcQLjHo9UL6-47" edge="1">
          <mxGeometry width="100" height="100" relative="1" as="geometry">
            <mxPoint x="410" y="870" as="sourcePoint" />
            <mxPoint x="510" y="770" as="targetPoint" />
          </mxGeometry>
        </mxCell>
        <mxCell id="1oH-_9PxXLcQLjHo9UL6-69" value="country" style="shape=table;startSize=30;container=1;collapsible=1;childLayout=tableLayout;fixedRows=1;rowLines=0;fontStyle=1;align=center;resizeLast=1;" parent="1" vertex="1">
          <mxGeometry x="120" y="980" width="260" height="120" as="geometry" />
        </mxCell>
        <mxCell id="1oH-_9PxXLcQLjHo9UL6-70" value="" style="shape=partialRectangle;collapsible=0;dropTarget=0;pointerEvents=0;fillColor=none;top=0;left=0;bottom=1;right=0;points=[[0,0.5],[1,0.5]];portConstraint=eastwest;" parent="1oH-_9PxXLcQLjHo9UL6-69" vertex="1">
          <mxGeometry y="30" width="260" height="30" as="geometry" />
        </mxCell>
        <mxCell id="1oH-_9PxXLcQLjHo9UL6-71" value="PK" style="shape=partialRectangle;connectable=0;fillColor=none;top=0;left=0;bottom=0;right=0;fontStyle=1;overflow=hidden;" parent="1oH-_9PxXLcQLjHo9UL6-70" vertex="1">
          <mxGeometry width="30" height="30" as="geometry" />
        </mxCell>
        <mxCell id="1oH-_9PxXLcQLjHo9UL6-72" value="id INT NOT NULL" style="shape=partialRectangle;connectable=0;fillColor=none;top=0;left=0;bottom=0;right=0;align=left;spacingLeft=6;fontStyle=5;overflow=hidden;" parent="1oH-_9PxXLcQLjHo9UL6-70" vertex="1">
          <mxGeometry x="30" width="230" height="30" as="geometry" />
        </mxCell>
        <mxCell id="1oH-_9PxXLcQLjHo9UL6-73" value="" style="shape=partialRectangle;collapsible=0;dropTarget=0;pointerEvents=0;fillColor=none;top=0;left=0;bottom=0;right=0;points=[[0,0.5],[1,0.5]];portConstraint=eastwest;" parent="1oH-_9PxXLcQLjHo9UL6-69" vertex="1">
          <mxGeometry y="60" width="260" height="30" as="geometry" />
        </mxCell>
        <mxCell id="1oH-_9PxXLcQLjHo9UL6-74" value="" style="shape=partialRectangle;connectable=0;fillColor=none;top=0;left=0;bottom=0;right=0;editable=1;overflow=hidden;" parent="1oH-_9PxXLcQLjHo9UL6-73" vertex="1">
          <mxGeometry width="30" height="30" as="geometry" />
        </mxCell>
        <mxCell id="1oH-_9PxXLcQLjHo9UL6-75" value="name VARCHAR(255) NOT NULL" style="shape=partialRectangle;connectable=0;fillColor=none;top=0;left=0;bottom=0;right=0;align=left;spacingLeft=6;overflow=hidden;" parent="1oH-_9PxXLcQLjHo9UL6-73" vertex="1">
          <mxGeometry x="30" width="230" height="30" as="geometry" />
        </mxCell>
        <mxCell id="1oH-_9PxXLcQLjHo9UL6-84" value="" style="edgeStyle=entityRelationEdgeStyle;fontSize=12;html=1;endArrow=ERoneToMany;exitX=1;exitY=0.5;exitDx=0;exitDy=0;entryX=1;entryY=0.5;entryDx=0;entryDy=0;" parent="1" source="1oH-_9PxXLcQLjHo9UL6-70" target="1oH-_9PxXLcQLjHo9UL6-62" edge="1">
          <mxGeometry width="100" height="100" relative="1" as="geometry">
            <mxPoint x="430" y="1070" as="sourcePoint" />
            <mxPoint x="530" y="970" as="targetPoint" />
          </mxGeometry>
        </mxCell>
        <mxCell id="1oH-_9PxXLcQLjHo9UL6-85" value="driver" style="shape=table;startSize=30;container=1;collapsible=1;childLayout=tableLayout;fixedRows=1;rowLines=0;fontStyle=1;align=center;resizeLast=1;" parent="1" vertex="1">
          <mxGeometry x="1590" y="30" width="460" height="240" as="geometry" />
        </mxCell>
        <mxCell id="1oH-_9PxXLcQLjHo9UL6-86" value="" style="shape=partialRectangle;collapsible=0;dropTarget=0;pointerEvents=0;fillColor=none;top=0;left=0;bottom=1;right=0;points=[[0,0.5],[1,0.5]];portConstraint=eastwest;" parent="1oH-_9PxXLcQLjHo9UL6-85" vertex="1">
          <mxGeometry y="30" width="460" height="30" as="geometry" />
        </mxCell>
        <mxCell id="1oH-_9PxXLcQLjHo9UL6-87" value="PK" style="shape=partialRectangle;connectable=0;fillColor=none;top=0;left=0;bottom=0;right=0;fontStyle=1;overflow=hidden;" parent="1oH-_9PxXLcQLjHo9UL6-86" vertex="1">
          <mxGeometry width="30" height="30" as="geometry" />
        </mxCell>
        <mxCell id="1oH-_9PxXLcQLjHo9UL6-88" value="id INT NOT NULL" style="shape=partialRectangle;connectable=0;fillColor=none;top=0;left=0;bottom=0;right=0;align=left;spacingLeft=6;fontStyle=5;overflow=hidden;" parent="1oH-_9PxXLcQLjHo9UL6-86" vertex="1">
          <mxGeometry x="30" width="430" height="30" as="geometry" />
        </mxCell>
        <mxCell id="1oH-_9PxXLcQLjHo9UL6-89" value="" style="shape=partialRectangle;collapsible=0;dropTarget=0;pointerEvents=0;fillColor=none;top=0;left=0;bottom=0;right=0;points=[[0,0.5],[1,0.5]];portConstraint=eastwest;" parent="1oH-_9PxXLcQLjHo9UL6-85" vertex="1">
          <mxGeometry y="60" width="460" height="30" as="geometry" />
        </mxCell>
        <mxCell id="1oH-_9PxXLcQLjHo9UL6-90" value="" style="shape=partialRectangle;connectable=0;fillColor=none;top=0;left=0;bottom=0;right=0;editable=1;overflow=hidden;" parent="1oH-_9PxXLcQLjHo9UL6-89" vertex="1">
          <mxGeometry width="30" height="30" as="geometry" />
        </mxCell>
        <mxCell id="1oH-_9PxXLcQLjHo9UL6-91" value="name VARCHAR(255) NOT NULL" style="shape=partialRectangle;connectable=0;fillColor=none;top=0;left=0;bottom=0;right=0;align=left;spacingLeft=6;overflow=hidden;" parent="1oH-_9PxXLcQLjHo9UL6-89" vertex="1">
          <mxGeometry x="30" width="430" height="30" as="geometry" />
        </mxCell>
        <mxCell id="1oH-_9PxXLcQLjHo9UL6-92" value="" style="shape=partialRectangle;collapsible=0;dropTarget=0;pointerEvents=0;fillColor=none;top=0;left=0;bottom=0;right=0;points=[[0,0.5],[1,0.5]];portConstraint=eastwest;" parent="1oH-_9PxXLcQLjHo9UL6-85" vertex="1">
          <mxGeometry y="90" width="460" height="30" as="geometry" />
        </mxCell>
        <mxCell id="1oH-_9PxXLcQLjHo9UL6-93" value="" style="shape=partialRectangle;connectable=0;fillColor=none;top=0;left=0;bottom=0;right=0;editable=1;overflow=hidden;" parent="1oH-_9PxXLcQLjHo9UL6-92" vertex="1">
          <mxGeometry width="30" height="30" as="geometry" />
        </mxCell>
        <mxCell id="1oH-_9PxXLcQLjHo9UL6-94" value="age SHORTINTEGER NOT NULL" style="shape=partialRectangle;connectable=0;fillColor=none;top=0;left=0;bottom=0;right=0;align=left;spacingLeft=6;overflow=hidden;" parent="1oH-_9PxXLcQLjHo9UL6-92" vertex="1">
          <mxGeometry x="30" width="430" height="30" as="geometry" />
        </mxCell>
        <mxCell id="1oH-_9PxXLcQLjHo9UL6-95" value="" style="shape=partialRectangle;collapsible=0;dropTarget=0;pointerEvents=0;fillColor=none;top=0;left=0;bottom=0;right=0;points=[[0,0.5],[1,0.5]];portConstraint=eastwest;" parent="1oH-_9PxXLcQLjHo9UL6-85" vertex="1">
          <mxGeometry y="120" width="460" height="30" as="geometry" />
        </mxCell>
        <mxCell id="1oH-_9PxXLcQLjHo9UL6-96" value="" style="shape=partialRectangle;connectable=0;fillColor=none;top=0;left=0;bottom=0;right=0;editable=1;overflow=hidden;" parent="1oH-_9PxXLcQLjHo9UL6-95" vertex="1">
          <mxGeometry width="30" height="30" as="geometry" />
        </mxCell>
        <mxCell id="1oH-_9PxXLcQLjHo9UL6-97" value="phone_number VARCHAR(50) NOT NULL" style="shape=partialRectangle;connectable=0;fillColor=none;top=0;left=0;bottom=0;right=0;align=left;spacingLeft=6;overflow=hidden;" parent="1oH-_9PxXLcQLjHo9UL6-95" vertex="1">
          <mxGeometry x="30" width="430" height="30" as="geometry" />
        </mxCell>
        <mxCell id="TlHQc8iveEWoduccsFiI-286" value="" style="shape=partialRectangle;collapsible=0;dropTarget=0;pointerEvents=0;fillColor=none;top=0;left=0;bottom=0;right=0;points=[[0,0.5],[1,0.5]];portConstraint=eastwest;" parent="1oH-_9PxXLcQLjHo9UL6-85" vertex="1">
          <mxGeometry y="150" width="460" height="30" as="geometry" />
        </mxCell>
        <mxCell id="TlHQc8iveEWoduccsFiI-287" value="" style="shape=partialRectangle;connectable=0;fillColor=none;top=0;left=0;bottom=0;right=0;editable=1;overflow=hidden;" parent="TlHQc8iveEWoduccsFiI-286" vertex="1">
          <mxGeometry width="30" height="30" as="geometry" />
        </mxCell>
        <mxCell id="TlHQc8iveEWoduccsFiI-288" value="percent_of_payment DECIMAL NOT NULL (сколько получает водитель &#xa;от каждого чека)" style="shape=partialRectangle;connectable=0;fillColor=none;top=0;left=0;bottom=0;right=0;align=left;spacingLeft=6;overflow=hidden;" parent="TlHQc8iveEWoduccsFiI-286" vertex="1">
          <mxGeometry x="30" width="430" height="30" as="geometry" />
        </mxCell>
        <mxCell id="1oH-_9PxXLcQLjHo9UL6-116" value="" style="shape=partialRectangle;collapsible=0;dropTarget=0;pointerEvents=0;fillColor=none;top=0;left=0;bottom=0;right=0;points=[[0,0.5],[1,0.5]];portConstraint=eastwest;" parent="1oH-_9PxXLcQLjHo9UL6-85" vertex="1">
          <mxGeometry y="180" width="460" height="30" as="geometry" />
        </mxCell>
        <mxCell id="1oH-_9PxXLcQLjHo9UL6-117" value="" style="shape=partialRectangle;connectable=0;fillColor=none;top=0;left=0;bottom=0;right=0;editable=1;overflow=hidden;" parent="1oH-_9PxXLcQLjHo9UL6-116" vertex="1">
          <mxGeometry width="30" height="30" as="geometry" />
        </mxCell>
        <mxCell id="1oH-_9PxXLcQLjHo9UL6-118" value="registration_date DATE NOT NULL" style="shape=partialRectangle;connectable=0;fillColor=none;top=0;left=0;bottom=0;right=0;align=left;spacingLeft=6;overflow=hidden;" parent="1oH-_9PxXLcQLjHo9UL6-116" vertex="1">
          <mxGeometry x="30" width="430" height="30" as="geometry" />
        </mxCell>
        <mxCell id="1oH-_9PxXLcQLjHo9UL6-98" value="passenger_rating" style="shape=table;startSize=30;container=1;collapsible=1;childLayout=tableLayout;fixedRows=1;rowLines=0;fontStyle=1;align=center;resizeLast=1;" parent="1" vertex="1">
          <mxGeometry x="-240" y="160" width="260" height="120" as="geometry" />
        </mxCell>
        <mxCell id="1oH-_9PxXLcQLjHo9UL6-99" value="" style="shape=partialRectangle;collapsible=0;dropTarget=0;pointerEvents=0;fillColor=none;top=0;left=0;bottom=1;right=0;points=[[0,0.5],[1,0.5]];portConstraint=eastwest;" parent="1oH-_9PxXLcQLjHo9UL6-98" vertex="1">
          <mxGeometry y="30" width="260" height="30" as="geometry" />
        </mxCell>
        <mxCell id="1oH-_9PxXLcQLjHo9UL6-100" value="PK, FK" style="shape=partialRectangle;connectable=0;fillColor=none;top=0;left=0;bottom=0;right=0;fontStyle=1;overflow=hidden;" parent="1oH-_9PxXLcQLjHo9UL6-99" vertex="1">
          <mxGeometry width="50" height="30" as="geometry" />
        </mxCell>
        <mxCell id="1oH-_9PxXLcQLjHo9UL6-101" value="passenger_id INT NOT NULL" style="shape=partialRectangle;connectable=0;fillColor=none;top=0;left=0;bottom=0;right=0;align=left;spacingLeft=6;fontStyle=5;overflow=hidden;" parent="1oH-_9PxXLcQLjHo9UL6-99" vertex="1">
          <mxGeometry x="50" width="210" height="30" as="geometry" />
        </mxCell>
        <mxCell id="1oH-_9PxXLcQLjHo9UL6-102" value="" style="shape=partialRectangle;collapsible=0;dropTarget=0;pointerEvents=0;fillColor=none;top=0;left=0;bottom=0;right=0;points=[[0,0.5],[1,0.5]];portConstraint=eastwest;" parent="1oH-_9PxXLcQLjHo9UL6-98" vertex="1">
          <mxGeometry y="60" width="260" height="30" as="geometry" />
        </mxCell>
        <mxCell id="1oH-_9PxXLcQLjHo9UL6-103" value="" style="shape=partialRectangle;connectable=0;fillColor=none;top=0;left=0;bottom=0;right=0;editable=1;overflow=hidden;" parent="1oH-_9PxXLcQLjHo9UL6-102" vertex="1">
          <mxGeometry width="50" height="30" as="geometry" />
        </mxCell>
        <mxCell id="1oH-_9PxXLcQLjHo9UL6-104" value="rating DECIMAL" style="shape=partialRectangle;connectable=0;fillColor=none;top=0;left=0;bottom=0;right=0;align=left;spacingLeft=6;overflow=hidden;" parent="1oH-_9PxXLcQLjHo9UL6-102" vertex="1">
          <mxGeometry x="50" width="210" height="30" as="geometry" />
        </mxCell>
        <mxCell id="1oH-_9PxXLcQLjHo9UL6-111" value="" style="edgeStyle=orthogonalEdgeStyle;fontSize=12;html=1;endArrow=ERmandOne;startArrow=ERmandOne;exitX=1;exitY=0.5;exitDx=0;exitDy=0;" parent="1" source="1oH-_9PxXLcQLjHo9UL6-99" target="1oH-_9PxXLcQLjHo9UL6-6" edge="1">
          <mxGeometry width="100" height="100" relative="1" as="geometry">
            <mxPoint x="440" y="260" as="sourcePoint" />
            <mxPoint x="540" y="160" as="targetPoint" />
          </mxGeometry>
        </mxCell>
        <mxCell id="1oH-_9PxXLcQLjHo9UL6-122" value="driver_image" style="shape=table;startSize=30;container=1;collapsible=1;childLayout=tableLayout;fixedRows=1;rowLines=0;fontStyle=1;align=center;resizeLast=1;" parent="1" vertex="1">
          <mxGeometry x="2260" y="30" width="260" height="120" as="geometry" />
        </mxCell>
        <mxCell id="1oH-_9PxXLcQLjHo9UL6-123" value="" style="shape=partialRectangle;collapsible=0;dropTarget=0;pointerEvents=0;fillColor=none;top=0;left=0;bottom=1;right=0;points=[[0,0.5],[1,0.5]];portConstraint=eastwest;" parent="1oH-_9PxXLcQLjHo9UL6-122" vertex="1">
          <mxGeometry y="30" width="260" height="30" as="geometry" />
        </mxCell>
        <mxCell id="1oH-_9PxXLcQLjHo9UL6-124" value="PK, FK" style="shape=partialRectangle;connectable=0;fillColor=none;top=0;left=0;bottom=0;right=0;fontStyle=1;overflow=hidden;" parent="1oH-_9PxXLcQLjHo9UL6-123" vertex="1">
          <mxGeometry width="50" height="30" as="geometry" />
        </mxCell>
        <mxCell id="1oH-_9PxXLcQLjHo9UL6-125" value="id INT NOT NULL" style="shape=partialRectangle;connectable=0;fillColor=none;top=0;left=0;bottom=0;right=0;align=left;spacingLeft=6;fontStyle=5;overflow=hidden;" parent="1oH-_9PxXLcQLjHo9UL6-123" vertex="1">
          <mxGeometry x="50" width="210" height="30" as="geometry" />
        </mxCell>
        <mxCell id="1oH-_9PxXLcQLjHo9UL6-126" value="" style="shape=partialRectangle;collapsible=0;dropTarget=0;pointerEvents=0;fillColor=none;top=0;left=0;bottom=0;right=0;points=[[0,0.5],[1,0.5]];portConstraint=eastwest;" parent="1oH-_9PxXLcQLjHo9UL6-122" vertex="1">
          <mxGeometry y="60" width="260" height="30" as="geometry" />
        </mxCell>
        <mxCell id="1oH-_9PxXLcQLjHo9UL6-127" value="" style="shape=partialRectangle;connectable=0;fillColor=none;top=0;left=0;bottom=0;right=0;editable=1;overflow=hidden;" parent="1oH-_9PxXLcQLjHo9UL6-126" vertex="1">
          <mxGeometry width="50" height="30" as="geometry" />
        </mxCell>
        <mxCell id="1oH-_9PxXLcQLjHo9UL6-128" value="image CLOB" style="shape=partialRectangle;connectable=0;fillColor=none;top=0;left=0;bottom=0;right=0;align=left;spacingLeft=6;overflow=hidden;" parent="1oH-_9PxXLcQLjHo9UL6-126" vertex="1">
          <mxGeometry x="50" width="210" height="30" as="geometry" />
        </mxCell>
        <mxCell id="1oH-_9PxXLcQLjHo9UL6-136" value="" style="edgeStyle=entityRelationEdgeStyle;fontSize=12;html=1;endArrow=ERmandOne;startArrow=ERmandOne;entryX=0;entryY=0.5;entryDx=0;entryDy=0;exitX=1;exitY=0.5;exitDx=0;exitDy=0;" parent="1" source="1oH-_9PxXLcQLjHo9UL6-86" target="1oH-_9PxXLcQLjHo9UL6-123" edge="1">
          <mxGeometry width="100" height="100" relative="1" as="geometry">
            <mxPoint x="2070" y="190" as="sourcePoint" />
            <mxPoint x="2170" y="90" as="targetPoint" />
          </mxGeometry>
        </mxCell>
        <mxCell id="1oH-_9PxXLcQLjHo9UL6-137" value="passenger_image" style="shape=table;startSize=30;container=1;collapsible=1;childLayout=tableLayout;fixedRows=1;rowLines=0;fontStyle=1;align=center;resizeLast=1;" parent="1" vertex="1">
          <mxGeometry x="-240" y="30" width="260" height="120" as="geometry" />
        </mxCell>
        <mxCell id="1oH-_9PxXLcQLjHo9UL6-138" value="" style="shape=partialRectangle;collapsible=0;dropTarget=0;pointerEvents=0;fillColor=none;top=0;left=0;bottom=1;right=0;points=[[0,0.5],[1,0.5]];portConstraint=eastwest;" parent="1oH-_9PxXLcQLjHo9UL6-137" vertex="1">
          <mxGeometry y="30" width="260" height="30" as="geometry" />
        </mxCell>
        <mxCell id="1oH-_9PxXLcQLjHo9UL6-139" value="PK, FK" style="shape=partialRectangle;connectable=0;fillColor=none;top=0;left=0;bottom=0;right=0;fontStyle=1;overflow=hidden;" parent="1oH-_9PxXLcQLjHo9UL6-138" vertex="1">
          <mxGeometry width="50" height="30" as="geometry" />
        </mxCell>
        <mxCell id="1oH-_9PxXLcQLjHo9UL6-140" value="id INT NOT NULL" style="shape=partialRectangle;connectable=0;fillColor=none;top=0;left=0;bottom=0;right=0;align=left;spacingLeft=6;fontStyle=5;overflow=hidden;" parent="1oH-_9PxXLcQLjHo9UL6-138" vertex="1">
          <mxGeometry x="50" width="210" height="30" as="geometry" />
        </mxCell>
        <mxCell id="1oH-_9PxXLcQLjHo9UL6-141" value="" style="shape=partialRectangle;collapsible=0;dropTarget=0;pointerEvents=0;fillColor=none;top=0;left=0;bottom=0;right=0;points=[[0,0.5],[1,0.5]];portConstraint=eastwest;" parent="1oH-_9PxXLcQLjHo9UL6-137" vertex="1">
          <mxGeometry y="60" width="260" height="30" as="geometry" />
        </mxCell>
        <mxCell id="1oH-_9PxXLcQLjHo9UL6-142" value="" style="shape=partialRectangle;connectable=0;fillColor=none;top=0;left=0;bottom=0;right=0;editable=1;overflow=hidden;" parent="1oH-_9PxXLcQLjHo9UL6-141" vertex="1">
          <mxGeometry width="50" height="30" as="geometry" />
        </mxCell>
        <mxCell id="1oH-_9PxXLcQLjHo9UL6-143" value="image CLOB" style="shape=partialRectangle;connectable=0;fillColor=none;top=0;left=0;bottom=0;right=0;align=left;spacingLeft=6;overflow=hidden;" parent="1oH-_9PxXLcQLjHo9UL6-141" vertex="1">
          <mxGeometry x="50" width="210" height="30" as="geometry" />
        </mxCell>
        <mxCell id="1oH-_9PxXLcQLjHo9UL6-144" value="" style="edgeStyle=entityRelationEdgeStyle;fontSize=12;html=1;endArrow=ERmandOne;startArrow=ERmandOne;exitX=1;exitY=0.5;exitDx=0;exitDy=0;entryX=0;entryY=0.5;entryDx=0;entryDy=0;" parent="1" source="1oH-_9PxXLcQLjHo9UL6-138" target="1oH-_9PxXLcQLjHo9UL6-6" edge="1">
          <mxGeometry width="100" height="100" relative="1" as="geometry">
            <mxPoint x="600" y="140" as="sourcePoint" />
            <mxPoint x="700" y="40" as="targetPoint" />
          </mxGeometry>
        </mxCell>
        <mxCell id="1oH-_9PxXLcQLjHo9UL6-145" value="driver_rating" style="shape=table;startSize=30;container=1;collapsible=1;childLayout=tableLayout;fixedRows=1;rowLines=0;fontStyle=1;align=center;resizeLast=1;" parent="1" vertex="1">
          <mxGeometry x="2260" y="160" width="260" height="120" as="geometry" />
        </mxCell>
        <mxCell id="1oH-_9PxXLcQLjHo9UL6-146" value="" style="shape=partialRectangle;collapsible=0;dropTarget=0;pointerEvents=0;fillColor=none;top=0;left=0;bottom=1;right=0;points=[[0,0.5],[1,0.5]];portConstraint=eastwest;" parent="1oH-_9PxXLcQLjHo9UL6-145" vertex="1">
          <mxGeometry y="30" width="260" height="30" as="geometry" />
        </mxCell>
        <mxCell id="1oH-_9PxXLcQLjHo9UL6-147" value="PK, FK" style="shape=partialRectangle;connectable=0;fillColor=none;top=0;left=0;bottom=0;right=0;fontStyle=1;overflow=hidden;" parent="1oH-_9PxXLcQLjHo9UL6-146" vertex="1">
          <mxGeometry width="50" height="30" as="geometry" />
        </mxCell>
        <mxCell id="1oH-_9PxXLcQLjHo9UL6-148" value="driver_id INT NOT NULL" style="shape=partialRectangle;connectable=0;fillColor=none;top=0;left=0;bottom=0;right=0;align=left;spacingLeft=6;fontStyle=5;overflow=hidden;" parent="1oH-_9PxXLcQLjHo9UL6-146" vertex="1">
          <mxGeometry x="50" width="210" height="30" as="geometry" />
        </mxCell>
        <mxCell id="1oH-_9PxXLcQLjHo9UL6-149" value="" style="shape=partialRectangle;collapsible=0;dropTarget=0;pointerEvents=0;fillColor=none;top=0;left=0;bottom=0;right=0;points=[[0,0.5],[1,0.5]];portConstraint=eastwest;" parent="1oH-_9PxXLcQLjHo9UL6-145" vertex="1">
          <mxGeometry y="60" width="260" height="30" as="geometry" />
        </mxCell>
        <mxCell id="1oH-_9PxXLcQLjHo9UL6-150" value="" style="shape=partialRectangle;connectable=0;fillColor=none;top=0;left=0;bottom=0;right=0;editable=1;overflow=hidden;" parent="1oH-_9PxXLcQLjHo9UL6-149" vertex="1">
          <mxGeometry width="50" height="30" as="geometry" />
        </mxCell>
        <mxCell id="1oH-_9PxXLcQLjHo9UL6-151" value="rating DECIMAL" style="shape=partialRectangle;connectable=0;fillColor=none;top=0;left=0;bottom=0;right=0;align=left;spacingLeft=6;overflow=hidden;" parent="1oH-_9PxXLcQLjHo9UL6-149" vertex="1">
          <mxGeometry x="50" width="210" height="30" as="geometry" />
        </mxCell>
        <mxCell id="1oH-_9PxXLcQLjHo9UL6-152" value="" style="fontSize=12;html=1;endArrow=ERmandOne;startArrow=ERmandOne;entryX=0;entryY=0.5;entryDx=0;entryDy=0;exitX=1;exitY=0.5;exitDx=0;exitDy=0;edgeStyle=orthogonalEdgeStyle;" parent="1" source="1oH-_9PxXLcQLjHo9UL6-86" target="1oH-_9PxXLcQLjHo9UL6-146" edge="1">
          <mxGeometry width="100" height="100" relative="1" as="geometry">
            <mxPoint x="2120" y="85" as="sourcePoint" />
            <mxPoint x="2270" y="85" as="targetPoint" />
          </mxGeometry>
        </mxCell>
        <mxCell id="1oH-_9PxXLcQLjHo9UL6-153" value="parking" style="shape=table;startSize=30;container=1;collapsible=1;childLayout=tableLayout;fixedRows=1;rowLines=0;fontStyle=1;align=center;resizeLast=1;" parent="1" vertex="1">
          <mxGeometry x="1790" y="570" width="330" height="150" as="geometry" />
        </mxCell>
        <mxCell id="1oH-_9PxXLcQLjHo9UL6-154" value="" style="shape=partialRectangle;collapsible=0;dropTarget=0;pointerEvents=0;fillColor=none;top=0;left=0;bottom=1;right=0;points=[[0,0.5],[1,0.5]];portConstraint=eastwest;" parent="1oH-_9PxXLcQLjHo9UL6-153" vertex="1">
          <mxGeometry y="30" width="330" height="30" as="geometry" />
        </mxCell>
        <mxCell id="1oH-_9PxXLcQLjHo9UL6-155" value="PK" style="shape=partialRectangle;connectable=0;fillColor=none;top=0;left=0;bottom=0;right=0;fontStyle=1;overflow=hidden;" parent="1oH-_9PxXLcQLjHo9UL6-154" vertex="1">
          <mxGeometry width="50" height="30" as="geometry" />
        </mxCell>
        <mxCell id="1oH-_9PxXLcQLjHo9UL6-156" value="id INT NOT NULL" style="shape=partialRectangle;connectable=0;fillColor=none;top=0;left=0;bottom=0;right=0;align=left;spacingLeft=6;fontStyle=5;overflow=hidden;" parent="1oH-_9PxXLcQLjHo9UL6-154" vertex="1">
          <mxGeometry x="50" width="280" height="30" as="geometry" />
        </mxCell>
        <mxCell id="1oH-_9PxXLcQLjHo9UL6-157" value="" style="shape=partialRectangle;collapsible=0;dropTarget=0;pointerEvents=0;fillColor=none;top=0;left=0;bottom=0;right=0;points=[[0,0.5],[1,0.5]];portConstraint=eastwest;" parent="1oH-_9PxXLcQLjHo9UL6-153" vertex="1">
          <mxGeometry y="60" width="330" height="30" as="geometry" />
        </mxCell>
        <mxCell id="1oH-_9PxXLcQLjHo9UL6-158" value="UK" style="shape=partialRectangle;connectable=0;fillColor=none;top=0;left=0;bottom=0;right=0;editable=1;overflow=hidden;" parent="1oH-_9PxXLcQLjHo9UL6-157" vertex="1">
          <mxGeometry width="50" height="30" as="geometry" />
        </mxCell>
        <mxCell id="1oH-_9PxXLcQLjHo9UL6-159" value="number INT NOT NULL" style="shape=partialRectangle;connectable=0;fillColor=none;top=0;left=0;bottom=0;right=0;align=left;spacingLeft=6;overflow=hidden;" parent="1oH-_9PxXLcQLjHo9UL6-157" vertex="1">
          <mxGeometry x="50" width="280" height="30" as="geometry" />
        </mxCell>
        <mxCell id="1oH-_9PxXLcQLjHo9UL6-163" value="" style="shape=partialRectangle;collapsible=0;dropTarget=0;pointerEvents=0;fillColor=none;top=0;left=0;bottom=0;right=0;points=[[0,0.5],[1,0.5]];portConstraint=eastwest;" parent="1oH-_9PxXLcQLjHo9UL6-153" vertex="1">
          <mxGeometry y="90" width="330" height="30" as="geometry" />
        </mxCell>
        <mxCell id="1oH-_9PxXLcQLjHo9UL6-164" value="FK" style="shape=partialRectangle;connectable=0;fillColor=none;top=0;left=0;bottom=0;right=0;editable=1;overflow=hidden;" parent="1oH-_9PxXLcQLjHo9UL6-163" vertex="1">
          <mxGeometry width="50" height="30" as="geometry" />
        </mxCell>
        <mxCell id="1oH-_9PxXLcQLjHo9UL6-165" value="address_id INT NOT NULL" style="shape=partialRectangle;connectable=0;fillColor=none;top=0;left=0;bottom=0;right=0;align=left;spacingLeft=6;overflow=hidden;" parent="1oH-_9PxXLcQLjHo9UL6-163" vertex="1">
          <mxGeometry x="50" width="280" height="30" as="geometry" />
        </mxCell>
        <mxCell id="dlVhNzrJFg5BRL5mB-Kx-2" value="" style="edgeStyle=orthogonalEdgeStyle;fontSize=12;html=1;endArrow=ERmandOne;startArrow=ERmandOne;entryX=0;entryY=0.5;entryDx=0;entryDy=0;exitX=1;exitY=0.5;exitDx=0;exitDy=0;" parent="1" source="1oH-_9PxXLcQLjHo9UL6-22" target="1oH-_9PxXLcQLjHo9UL6-163" edge="1">
          <mxGeometry width="100" height="100" relative="1" as="geometry">
            <mxPoint x="740" y="830" as="sourcePoint" />
            <mxPoint x="840" y="730" as="targetPoint" />
            <Array as="points">
              <mxPoint x="570" y="545" />
              <mxPoint x="570" y="675" />
            </Array>
          </mxGeometry>
        </mxCell>
        <mxCell id="TlHQc8iveEWoduccsFiI-6" value="car" style="shape=table;startSize=30;container=1;collapsible=1;childLayout=tableLayout;fixedRows=1;rowLines=0;fontStyle=1;align=center;resizeLast=1;" parent="1" vertex="1">
          <mxGeometry x="2290" y="570" width="420" height="300" as="geometry" />
        </mxCell>
        <mxCell id="TlHQc8iveEWoduccsFiI-7" value="" style="shape=partialRectangle;collapsible=0;dropTarget=0;pointerEvents=0;fillColor=none;top=0;left=0;bottom=1;right=0;points=[[0,0.5],[1,0.5]];portConstraint=eastwest;" parent="TlHQc8iveEWoduccsFiI-6" vertex="1">
          <mxGeometry y="30" width="420" height="30" as="geometry" />
        </mxCell>
        <mxCell id="TlHQc8iveEWoduccsFiI-8" value="PK" style="shape=partialRectangle;connectable=0;fillColor=none;top=0;left=0;bottom=0;right=0;fontStyle=1;overflow=hidden;" parent="TlHQc8iveEWoduccsFiI-7" vertex="1">
          <mxGeometry width="30" height="30" as="geometry">
            <mxRectangle width="30" height="30" as="alternateBounds" />
          </mxGeometry>
        </mxCell>
        <mxCell id="TlHQc8iveEWoduccsFiI-9" value="id INT NOT NULL" style="shape=partialRectangle;connectable=0;fillColor=none;top=0;left=0;bottom=0;right=0;align=left;spacingLeft=6;fontStyle=5;overflow=hidden;" parent="TlHQc8iveEWoduccsFiI-7" vertex="1">
          <mxGeometry x="30" width="390" height="30" as="geometry">
            <mxRectangle width="390" height="30" as="alternateBounds" />
          </mxGeometry>
        </mxCell>
        <mxCell id="TlHQc8iveEWoduccsFiI-10" value="" style="shape=partialRectangle;collapsible=0;dropTarget=0;pointerEvents=0;fillColor=none;top=0;left=0;bottom=0;right=0;points=[[0,0.5],[1,0.5]];portConstraint=eastwest;" parent="TlHQc8iveEWoduccsFiI-6" vertex="1">
          <mxGeometry y="60" width="420" height="30" as="geometry" />
        </mxCell>
        <mxCell id="TlHQc8iveEWoduccsFiI-11" value="" style="shape=partialRectangle;connectable=0;fillColor=none;top=0;left=0;bottom=0;right=0;editable=1;overflow=hidden;" parent="TlHQc8iveEWoduccsFiI-10" vertex="1">
          <mxGeometry width="30" height="30" as="geometry">
            <mxRectangle width="30" height="30" as="alternateBounds" />
          </mxGeometry>
        </mxCell>
        <mxCell id="TlHQc8iveEWoduccsFiI-12" value="brand VARCHAR(50) NOT NULL" style="shape=partialRectangle;connectable=0;fillColor=none;top=0;left=0;bottom=0;right=0;align=left;spacingLeft=6;overflow=hidden;" parent="TlHQc8iveEWoduccsFiI-10" vertex="1">
          <mxGeometry x="30" width="390" height="30" as="geometry">
            <mxRectangle width="390" height="30" as="alternateBounds" />
          </mxGeometry>
        </mxCell>
        <mxCell id="TlHQc8iveEWoduccsFiI-13" value="" style="shape=partialRectangle;collapsible=0;dropTarget=0;pointerEvents=0;fillColor=none;top=0;left=0;bottom=0;right=0;points=[[0,0.5],[1,0.5]];portConstraint=eastwest;" parent="TlHQc8iveEWoduccsFiI-6" vertex="1">
          <mxGeometry y="90" width="420" height="30" as="geometry" />
        </mxCell>
        <mxCell id="TlHQc8iveEWoduccsFiI-14" value="" style="shape=partialRectangle;connectable=0;fillColor=none;top=0;left=0;bottom=0;right=0;editable=1;overflow=hidden;" parent="TlHQc8iveEWoduccsFiI-13" vertex="1">
          <mxGeometry width="30" height="30" as="geometry">
            <mxRectangle width="30" height="30" as="alternateBounds" />
          </mxGeometry>
        </mxCell>
        <mxCell id="TlHQc8iveEWoduccsFiI-15" value="model VARCHAR(50) NOT NULL" style="shape=partialRectangle;connectable=0;fillColor=none;top=0;left=0;bottom=0;right=0;align=left;spacingLeft=6;overflow=hidden;" parent="TlHQc8iveEWoduccsFiI-13" vertex="1">
          <mxGeometry x="30" width="390" height="30" as="geometry">
            <mxRectangle width="390" height="30" as="alternateBounds" />
          </mxGeometry>
        </mxCell>
        <mxCell id="TlHQc8iveEWoduccsFiI-16" value="" style="shape=partialRectangle;collapsible=0;dropTarget=0;pointerEvents=0;fillColor=none;top=0;left=0;bottom=0;right=0;points=[[0,0.5],[1,0.5]];portConstraint=eastwest;" parent="TlHQc8iveEWoduccsFiI-6" vertex="1">
          <mxGeometry y="120" width="420" height="30" as="geometry" />
        </mxCell>
        <mxCell id="TlHQc8iveEWoduccsFiI-17" value="FK" style="shape=partialRectangle;connectable=0;fillColor=none;top=0;left=0;bottom=0;right=0;editable=1;overflow=hidden;" parent="TlHQc8iveEWoduccsFiI-16" vertex="1">
          <mxGeometry width="30" height="30" as="geometry">
            <mxRectangle width="30" height="30" as="alternateBounds" />
          </mxGeometry>
        </mxCell>
        <mxCell id="TlHQc8iveEWoduccsFiI-18" value="color_id        int not null" style="shape=partialRectangle;connectable=0;fillColor=none;top=0;left=0;bottom=0;right=0;align=left;spacingLeft=6;overflow=hidden;" parent="TlHQc8iveEWoduccsFiI-16" vertex="1">
          <mxGeometry x="30" width="390" height="30" as="geometry">
            <mxRectangle width="390" height="30" as="alternateBounds" />
          </mxGeometry>
        </mxCell>
        <mxCell id="TlHQc8iveEWoduccsFiI-22" value="" style="shape=partialRectangle;collapsible=0;dropTarget=0;pointerEvents=0;fillColor=none;top=0;left=0;bottom=0;right=0;points=[[0,0.5],[1,0.5]];portConstraint=eastwest;" parent="TlHQc8iveEWoduccsFiI-6" vertex="1">
          <mxGeometry y="150" width="420" height="30" as="geometry" />
        </mxCell>
        <mxCell id="TlHQc8iveEWoduccsFiI-23" value="" style="shape=partialRectangle;connectable=0;fillColor=none;top=0;left=0;bottom=0;right=0;editable=1;overflow=hidden;" parent="TlHQc8iveEWoduccsFiI-22" vertex="1">
          <mxGeometry width="30" height="30" as="geometry">
            <mxRectangle width="30" height="30" as="alternateBounds" />
          </mxGeometry>
        </mxCell>
        <mxCell id="TlHQc8iveEWoduccsFiI-24" value="is_reserved INT NOT NULL (1 - TRUE, 0 - FALSE )" style="shape=partialRectangle;connectable=0;fillColor=none;top=0;left=0;bottom=0;right=0;align=left;spacingLeft=6;overflow=hidden;" parent="TlHQc8iveEWoduccsFiI-22" vertex="1">
          <mxGeometry x="30" width="390" height="30" as="geometry">
            <mxRectangle width="390" height="30" as="alternateBounds" />
          </mxGeometry>
        </mxCell>
        <mxCell id="TlHQc8iveEWoduccsFiI-19" value="" style="shape=partialRectangle;collapsible=0;dropTarget=0;pointerEvents=0;fillColor=none;top=0;left=0;bottom=0;right=0;points=[[0,0.5],[1,0.5]];portConstraint=eastwest;" parent="TlHQc8iveEWoduccsFiI-6" vertex="1">
          <mxGeometry y="180" width="420" height="30" as="geometry" />
        </mxCell>
        <mxCell id="TlHQc8iveEWoduccsFiI-20" value="UK" style="shape=partialRectangle;connectable=0;fillColor=none;top=0;left=0;bottom=0;right=0;editable=1;overflow=hidden;" parent="TlHQc8iveEWoduccsFiI-19" vertex="1">
          <mxGeometry width="30" height="30" as="geometry">
            <mxRectangle width="30" height="30" as="alternateBounds" />
          </mxGeometry>
        </mxCell>
        <mxCell id="TlHQc8iveEWoduccsFiI-21" value="state number VARCHAR(50) NOT NULL" style="shape=partialRectangle;connectable=0;fillColor=none;top=0;left=0;bottom=0;right=0;align=left;spacingLeft=6;overflow=hidden;" parent="TlHQc8iveEWoduccsFiI-19" vertex="1">
          <mxGeometry x="30" width="390" height="30" as="geometry">
            <mxRectangle width="390" height="30" as="alternateBounds" />
          </mxGeometry>
        </mxCell>
        <mxCell id="TlHQc8iveEWoduccsFiI-41" value="" style="shape=partialRectangle;collapsible=0;dropTarget=0;pointerEvents=0;fillColor=none;top=0;left=0;bottom=0;right=0;points=[[0,0.5],[1,0.5]];portConstraint=eastwest;" parent="TlHQc8iveEWoduccsFiI-6" vertex="1">
          <mxGeometry y="210" width="420" height="30" as="geometry" />
        </mxCell>
        <mxCell id="TlHQc8iveEWoduccsFiI-42" value="FK" style="shape=partialRectangle;connectable=0;fillColor=none;top=0;left=0;bottom=0;right=0;editable=1;overflow=hidden;" parent="TlHQc8iveEWoduccsFiI-41" vertex="1">
          <mxGeometry width="30" height="30" as="geometry">
            <mxRectangle width="30" height="30" as="alternateBounds" />
          </mxGeometry>
        </mxCell>
        <mxCell id="TlHQc8iveEWoduccsFiI-43" value="parking_id INT NOT NULL" style="shape=partialRectangle;connectable=0;fillColor=none;top=0;left=0;bottom=0;right=0;align=left;spacingLeft=6;overflow=hidden;" parent="TlHQc8iveEWoduccsFiI-41" vertex="1">
          <mxGeometry x="30" width="390" height="30" as="geometry">
            <mxRectangle width="390" height="30" as="alternateBounds" />
          </mxGeometry>
        </mxCell>
        <mxCell id="TlHQc8iveEWoduccsFiI-64" value="" style="shape=partialRectangle;collapsible=0;dropTarget=0;pointerEvents=0;fillColor=none;top=0;left=0;bottom=0;right=0;points=[[0,0.5],[1,0.5]];portConstraint=eastwest;" parent="TlHQc8iveEWoduccsFiI-6" vertex="1">
          <mxGeometry y="240" width="420" height="30" as="geometry" />
        </mxCell>
        <mxCell id="TlHQc8iveEWoduccsFiI-65" value="" style="shape=partialRectangle;connectable=0;fillColor=none;top=0;left=0;bottom=0;right=0;editable=1;overflow=hidden;" parent="TlHQc8iveEWoduccsFiI-64" vertex="1">
          <mxGeometry width="30" height="30" as="geometry">
            <mxRectangle width="30" height="30" as="alternateBounds" />
          </mxGeometry>
        </mxCell>
        <mxCell id="TlHQc8iveEWoduccsFiI-66" value="mileage NUMBER NOT NULL (пробег в км)" style="shape=partialRectangle;connectable=0;fillColor=none;top=0;left=0;bottom=0;right=0;align=left;spacingLeft=6;overflow=hidden;" parent="TlHQc8iveEWoduccsFiI-64" vertex="1">
          <mxGeometry x="30" width="390" height="30" as="geometry">
            <mxRectangle width="390" height="30" as="alternateBounds" />
          </mxGeometry>
        </mxCell>
        <mxCell id="TlHQc8iveEWoduccsFiI-44" value="" style="edgeStyle=orthogonalEdgeStyle;fontSize=12;html=1;endArrow=ERoneToMany;entryX=0;entryY=0.5;entryDx=0;entryDy=0;exitX=1;exitY=0.5;exitDx=0;exitDy=0;" parent="1" source="1oH-_9PxXLcQLjHo9UL6-154" target="TlHQc8iveEWoduccsFiI-41" edge="1">
          <mxGeometry width="100" height="100" relative="1" as="geometry">
            <mxPoint x="2110" y="900" as="sourcePoint" />
            <mxPoint x="2210" y="800" as="targetPoint" />
          </mxGeometry>
        </mxCell>
        <mxCell id="TlHQc8iveEWoduccsFiI-45" value="rent" style="shape=table;startSize=30;container=1;collapsible=1;childLayout=tableLayout;fixedRows=1;rowLines=0;fontStyle=1;align=center;resizeLast=1;" parent="1" vertex="1">
          <mxGeometry x="2275" y="285" width="435" height="265" as="geometry" />
        </mxCell>
        <mxCell id="TlHQc8iveEWoduccsFiI-46" value="" style="shape=partialRectangle;collapsible=0;dropTarget=0;pointerEvents=0;fillColor=none;top=0;left=0;bottom=1;right=0;points=[[0,0.5],[1,0.5]];portConstraint=eastwest;" parent="TlHQc8iveEWoduccsFiI-45" vertex="1">
          <mxGeometry y="30" width="435" height="30" as="geometry" />
        </mxCell>
        <mxCell id="TlHQc8iveEWoduccsFiI-47" value="PK" style="shape=partialRectangle;connectable=0;fillColor=none;top=0;left=0;bottom=0;right=0;fontStyle=1;overflow=hidden;" parent="TlHQc8iveEWoduccsFiI-46" vertex="1">
          <mxGeometry width="30" height="30" as="geometry" />
        </mxCell>
        <mxCell id="TlHQc8iveEWoduccsFiI-48" value="id INT NOT NULL" style="shape=partialRectangle;connectable=0;fillColor=none;top=0;left=0;bottom=0;right=0;align=left;spacingLeft=6;fontStyle=5;overflow=hidden;" parent="TlHQc8iveEWoduccsFiI-46" vertex="1">
          <mxGeometry x="30" width="405" height="30" as="geometry" />
        </mxCell>
        <mxCell id="TlHQc8iveEWoduccsFiI-49" value="" style="shape=partialRectangle;collapsible=0;dropTarget=0;pointerEvents=0;fillColor=none;top=0;left=0;bottom=0;right=0;points=[[0,0.5],[1,0.5]];portConstraint=eastwest;" parent="TlHQc8iveEWoduccsFiI-45" vertex="1">
          <mxGeometry y="60" width="435" height="30" as="geometry" />
        </mxCell>
        <mxCell id="TlHQc8iveEWoduccsFiI-50" value="FK" style="shape=partialRectangle;connectable=0;fillColor=none;top=0;left=0;bottom=0;right=0;editable=1;overflow=hidden;" parent="TlHQc8iveEWoduccsFiI-49" vertex="1">
          <mxGeometry width="30" height="30" as="geometry" />
        </mxCell>
        <mxCell id="TlHQc8iveEWoduccsFiI-51" value="driver_id INT NOT NULL" style="shape=partialRectangle;connectable=0;fillColor=none;top=0;left=0;bottom=0;right=0;align=left;spacingLeft=6;overflow=hidden;" parent="TlHQc8iveEWoduccsFiI-49" vertex="1">
          <mxGeometry x="30" width="405" height="30" as="geometry" />
        </mxCell>
        <mxCell id="TlHQc8iveEWoduccsFiI-52" value="" style="shape=partialRectangle;collapsible=0;dropTarget=0;pointerEvents=0;fillColor=none;top=0;left=0;bottom=0;right=0;points=[[0,0.5],[1,0.5]];portConstraint=eastwest;" parent="TlHQc8iveEWoduccsFiI-45" vertex="1">
          <mxGeometry y="90" width="435" height="30" as="geometry" />
        </mxCell>
        <mxCell id="TlHQc8iveEWoduccsFiI-53" value="FK" style="shape=partialRectangle;connectable=0;fillColor=none;top=0;left=0;bottom=0;right=0;editable=1;overflow=hidden;" parent="TlHQc8iveEWoduccsFiI-52" vertex="1">
          <mxGeometry width="30" height="30" as="geometry" />
        </mxCell>
        <mxCell id="TlHQc8iveEWoduccsFiI-54" value="car_id INT NOT NULL" style="shape=partialRectangle;connectable=0;fillColor=none;top=0;left=0;bottom=0;right=0;align=left;spacingLeft=6;overflow=hidden;" parent="TlHQc8iveEWoduccsFiI-52" vertex="1">
          <mxGeometry x="30" width="405" height="30" as="geometry" />
        </mxCell>
        <mxCell id="TlHQc8iveEWoduccsFiI-55" value="" style="shape=partialRectangle;collapsible=0;dropTarget=0;pointerEvents=0;fillColor=none;top=0;left=0;bottom=0;right=0;points=[[0,0.5],[1,0.5]];portConstraint=eastwest;" parent="TlHQc8iveEWoduccsFiI-45" vertex="1">
          <mxGeometry y="120" width="435" height="30" as="geometry" />
        </mxCell>
        <mxCell id="TlHQc8iveEWoduccsFiI-56" value="" style="shape=partialRectangle;connectable=0;fillColor=none;top=0;left=0;bottom=0;right=0;editable=1;overflow=hidden;" parent="TlHQc8iveEWoduccsFiI-55" vertex="1">
          <mxGeometry width="30" height="30" as="geometry" />
        </mxCell>
        <mxCell id="TlHQc8iveEWoduccsFiI-57" value="date_start DATE NOT NULL" style="shape=partialRectangle;connectable=0;fillColor=none;top=0;left=0;bottom=0;right=0;align=left;spacingLeft=6;overflow=hidden;" parent="TlHQc8iveEWoduccsFiI-55" vertex="1">
          <mxGeometry x="30" width="405" height="30" as="geometry" />
        </mxCell>
        <mxCell id="TlHQc8iveEWoduccsFiI-58" value="" style="shape=partialRectangle;collapsible=0;dropTarget=0;pointerEvents=0;fillColor=none;top=0;left=0;bottom=0;right=0;points=[[0,0.5],[1,0.5]];portConstraint=eastwest;" parent="TlHQc8iveEWoduccsFiI-45" vertex="1">
          <mxGeometry y="150" width="435" height="30" as="geometry" />
        </mxCell>
        <mxCell id="TlHQc8iveEWoduccsFiI-59" value="" style="shape=partialRectangle;connectable=0;fillColor=none;top=0;left=0;bottom=0;right=0;editable=1;overflow=hidden;" parent="TlHQc8iveEWoduccsFiI-58" vertex="1">
          <mxGeometry width="30" height="30" as="geometry" />
        </mxCell>
        <mxCell id="TlHQc8iveEWoduccsFiI-60" value="data_stop DATE" style="shape=partialRectangle;connectable=0;fillColor=none;top=0;left=0;bottom=0;right=0;align=left;spacingLeft=6;overflow=hidden;" parent="TlHQc8iveEWoduccsFiI-58" vertex="1">
          <mxGeometry x="30" width="405" height="30" as="geometry" />
        </mxCell>
        <mxCell id="TlHQc8iveEWoduccsFiI-61" value="" style="shape=partialRectangle;collapsible=0;dropTarget=0;pointerEvents=0;fillColor=none;top=0;left=0;bottom=0;right=0;points=[[0,0.5],[1,0.5]];portConstraint=eastwest;" parent="TlHQc8iveEWoduccsFiI-45" vertex="1">
          <mxGeometry y="180" width="435" height="30" as="geometry" />
        </mxCell>
        <mxCell id="TlHQc8iveEWoduccsFiI-62" value="" style="shape=partialRectangle;connectable=0;fillColor=none;top=0;left=0;bottom=0;right=0;editable=1;overflow=hidden;" parent="TlHQc8iveEWoduccsFiI-61" vertex="1">
          <mxGeometry width="30" height="30" as="geometry" />
        </mxCell>
        <mxCell id="TlHQc8iveEWoduccsFiI-63" value="gas_mileage DECIMAL (расход в л)" style="shape=partialRectangle;connectable=0;fillColor=none;top=0;left=0;bottom=0;right=0;align=left;spacingLeft=6;overflow=hidden;" parent="TlHQc8iveEWoduccsFiI-61" vertex="1">
          <mxGeometry x="30" width="405" height="30" as="geometry" />
        </mxCell>
        <mxCell id="TlHQc8iveEWoduccsFiI-67" value="" style="shape=partialRectangle;collapsible=0;dropTarget=0;pointerEvents=0;fillColor=none;top=0;left=0;bottom=0;right=0;points=[[0,0.5],[1,0.5]];portConstraint=eastwest;" parent="TlHQc8iveEWoduccsFiI-45" vertex="1">
          <mxGeometry y="210" width="435" height="30" as="geometry" />
        </mxCell>
        <mxCell id="TlHQc8iveEWoduccsFiI-68" value="" style="shape=partialRectangle;connectable=0;fillColor=none;top=0;left=0;bottom=0;right=0;editable=1;overflow=hidden;" parent="TlHQc8iveEWoduccsFiI-67" vertex="1">
          <mxGeometry width="30" height="30" as="geometry" />
        </mxCell>
        <mxCell id="TlHQc8iveEWoduccsFiI-69" value="distance NUMBER (расстояние в км)" style="shape=partialRectangle;connectable=0;fillColor=none;top=0;left=0;bottom=0;right=0;align=left;spacingLeft=6;overflow=hidden;" parent="TlHQc8iveEWoduccsFiI-67" vertex="1">
          <mxGeometry x="30" width="405" height="30" as="geometry" />
        </mxCell>
        <mxCell id="TlHQc8iveEWoduccsFiI-70" value="" style="edgeStyle=orthogonalEdgeStyle;fontSize=12;html=1;endArrow=ERoneToMany;entryX=0;entryY=0.5;entryDx=0;entryDy=0;exitX=1;exitY=0.5;exitDx=0;exitDy=0;" parent="1" source="1oH-_9PxXLcQLjHo9UL6-86" target="TlHQc8iveEWoduccsFiI-49" edge="1">
          <mxGeometry width="100" height="100" relative="1" as="geometry">
            <mxPoint x="2190" y="350" as="sourcePoint" />
            <mxPoint x="2290" y="250" as="targetPoint" />
            <Array as="points">
              <mxPoint x="2110" y="75" />
              <mxPoint x="2110" y="360" />
            </Array>
          </mxGeometry>
        </mxCell>
        <mxCell id="TlHQc8iveEWoduccsFiI-72" value="" style="edgeStyle=entityRelationEdgeStyle;fontSize=12;html=1;endArrow=ERoneToMany;entryX=1;entryY=0.5;entryDx=0;entryDy=0;" parent="1" source="TlHQc8iveEWoduccsFiI-7" target="TlHQc8iveEWoduccsFiI-52" edge="1">
          <mxGeometry width="100" height="100" relative="1" as="geometry">
            <mxPoint x="2120" y="540" as="sourcePoint" />
            <mxPoint x="2220" y="440" as="targetPoint" />
          </mxGeometry>
        </mxCell>
        <mxCell id="TlHQc8iveEWoduccsFiI-74" value="rating_driver2passenger" style="shape=table;startSize=30;container=1;collapsible=1;childLayout=tableLayout;fixedRows=1;rowLines=0;fontStyle=1;align=center;resizeLast=1;" parent="1" vertex="1">
          <mxGeometry x="620" y="320" width="250" height="210" as="geometry" />
        </mxCell>
        <mxCell id="TlHQc8iveEWoduccsFiI-75" value="" style="shape=partialRectangle;collapsible=0;dropTarget=0;pointerEvents=0;fillColor=none;top=0;left=0;bottom=1;right=0;points=[[0,0.5],[1,0.5]];portConstraint=eastwest;" parent="TlHQc8iveEWoduccsFiI-74" vertex="1">
          <mxGeometry y="30" width="250" height="30" as="geometry" />
        </mxCell>
        <mxCell id="TlHQc8iveEWoduccsFiI-76" value="PK" style="shape=partialRectangle;connectable=0;fillColor=none;top=0;left=0;bottom=0;right=0;fontStyle=1;overflow=hidden;" parent="TlHQc8iveEWoduccsFiI-75" vertex="1">
          <mxGeometry width="30" height="30" as="geometry" />
        </mxCell>
        <mxCell id="TlHQc8iveEWoduccsFiI-77" value="id INT NOT NULL" style="shape=partialRectangle;connectable=0;fillColor=none;top=0;left=0;bottom=0;right=0;align=left;spacingLeft=6;fontStyle=5;overflow=hidden;" parent="TlHQc8iveEWoduccsFiI-75" vertex="1">
          <mxGeometry x="30" width="220" height="30" as="geometry" />
        </mxCell>
        <mxCell id="TlHQc8iveEWoduccsFiI-81" value="" style="shape=partialRectangle;collapsible=0;dropTarget=0;pointerEvents=0;fillColor=none;top=0;left=0;bottom=0;right=0;points=[[0,0.5],[1,0.5]];portConstraint=eastwest;" parent="TlHQc8iveEWoduccsFiI-74" vertex="1">
          <mxGeometry y="60" width="250" height="30" as="geometry" />
        </mxCell>
        <mxCell id="TlHQc8iveEWoduccsFiI-82" value="FK" style="shape=partialRectangle;connectable=0;fillColor=none;top=0;left=0;bottom=0;right=0;editable=1;overflow=hidden;" parent="TlHQc8iveEWoduccsFiI-81" vertex="1">
          <mxGeometry width="30" height="30" as="geometry" />
        </mxCell>
        <mxCell id="TlHQc8iveEWoduccsFiI-83" value="passenger INT NOT NULL" style="shape=partialRectangle;connectable=0;fillColor=none;top=0;left=0;bottom=0;right=0;align=left;spacingLeft=6;overflow=hidden;" parent="TlHQc8iveEWoduccsFiI-81" vertex="1">
          <mxGeometry x="30" width="220" height="30" as="geometry" />
        </mxCell>
        <mxCell id="TlHQc8iveEWoduccsFiI-78" value="" style="shape=partialRectangle;collapsible=0;dropTarget=0;pointerEvents=0;fillColor=none;top=0;left=0;bottom=0;right=0;points=[[0,0.5],[1,0.5]];portConstraint=eastwest;" parent="TlHQc8iveEWoduccsFiI-74" vertex="1">
          <mxGeometry y="90" width="250" height="30" as="geometry" />
        </mxCell>
        <mxCell id="TlHQc8iveEWoduccsFiI-79" value="FK" style="shape=partialRectangle;connectable=0;fillColor=none;top=0;left=0;bottom=0;right=0;editable=1;overflow=hidden;" parent="TlHQc8iveEWoduccsFiI-78" vertex="1">
          <mxGeometry width="30" height="30" as="geometry" />
        </mxCell>
        <mxCell id="TlHQc8iveEWoduccsFiI-80" value="driver_id INT NOT NULL" style="shape=partialRectangle;connectable=0;fillColor=none;top=0;left=0;bottom=0;right=0;align=left;spacingLeft=6;overflow=hidden;" parent="TlHQc8iveEWoduccsFiI-78" vertex="1">
          <mxGeometry x="30" width="220" height="30" as="geometry" />
        </mxCell>
        <mxCell id="TlHQc8iveEWoduccsFiI-157" value="" style="shape=partialRectangle;collapsible=0;dropTarget=0;pointerEvents=0;fillColor=none;top=0;left=0;bottom=0;right=0;points=[[0,0.5],[1,0.5]];portConstraint=eastwest;" parent="TlHQc8iveEWoduccsFiI-74" vertex="1">
          <mxGeometry y="120" width="250" height="30" as="geometry" />
        </mxCell>
        <mxCell id="TlHQc8iveEWoduccsFiI-158" value="FK" style="shape=partialRectangle;connectable=0;fillColor=none;top=0;left=0;bottom=0;right=0;editable=1;overflow=hidden;" parent="TlHQc8iveEWoduccsFiI-157" vertex="1">
          <mxGeometry width="30" height="30" as="geometry" />
        </mxCell>
        <mxCell id="TlHQc8iveEWoduccsFiI-159" value="order_id INT NOT NULL" style="shape=partialRectangle;connectable=0;fillColor=none;top=0;left=0;bottom=0;right=0;align=left;spacingLeft=6;overflow=hidden;" parent="TlHQc8iveEWoduccsFiI-157" vertex="1">
          <mxGeometry x="30" width="220" height="30" as="geometry" />
        </mxCell>
        <mxCell id="TlHQc8iveEWoduccsFiI-88" value="" style="shape=partialRectangle;collapsible=0;dropTarget=0;pointerEvents=0;fillColor=none;top=0;left=0;bottom=0;right=0;points=[[0,0.5],[1,0.5]];portConstraint=eastwest;" parent="TlHQc8iveEWoduccsFiI-74" vertex="1">
          <mxGeometry y="150" width="250" height="30" as="geometry" />
        </mxCell>
        <mxCell id="TlHQc8iveEWoduccsFiI-89" value="" style="shape=partialRectangle;connectable=0;fillColor=none;top=0;left=0;bottom=0;right=0;editable=1;overflow=hidden;" parent="TlHQc8iveEWoduccsFiI-88" vertex="1">
          <mxGeometry width="30" height="30" as="geometry" />
        </mxCell>
        <mxCell id="TlHQc8iveEWoduccsFiI-90" value="raring DECIMAL (оценка от 1 до 5)" style="shape=partialRectangle;connectable=0;fillColor=none;top=0;left=0;bottom=0;right=0;align=left;spacingLeft=6;overflow=hidden;" parent="TlHQc8iveEWoduccsFiI-88" vertex="1">
          <mxGeometry x="30" width="220" height="30" as="geometry" />
        </mxCell>
        <mxCell id="TlHQc8iveEWoduccsFiI-84" value="" style="shape=partialRectangle;collapsible=0;dropTarget=0;pointerEvents=0;fillColor=none;top=0;left=0;bottom=0;right=0;points=[[0,0.5],[1,0.5]];portConstraint=eastwest;" parent="TlHQc8iveEWoduccsFiI-74" vertex="1">
          <mxGeometry y="180" width="250" height="30" as="geometry" />
        </mxCell>
        <mxCell id="TlHQc8iveEWoduccsFiI-85" value="" style="shape=partialRectangle;connectable=0;fillColor=none;top=0;left=0;bottom=0;right=0;editable=1;overflow=hidden;" parent="TlHQc8iveEWoduccsFiI-84" vertex="1">
          <mxGeometry width="30" height="30" as="geometry" />
        </mxCell>
        <mxCell id="TlHQc8iveEWoduccsFiI-86" value="time_create TIMESTAMP NOT NULL" style="shape=partialRectangle;connectable=0;fillColor=none;top=0;left=0;bottom=0;right=0;align=left;spacingLeft=6;overflow=hidden;" parent="TlHQc8iveEWoduccsFiI-84" vertex="1">
          <mxGeometry x="30" width="220" height="30" as="geometry" />
        </mxCell>
        <mxCell id="TlHQc8iveEWoduccsFiI-91" value="" style="edgeStyle=orthogonalEdgeStyle;fontSize=12;html=1;endArrow=ERoneToMany;entryX=0;entryY=0.5;entryDx=0;entryDy=0;exitX=1;exitY=0.5;exitDx=0;exitDy=0;" parent="1" source="1oH-_9PxXLcQLjHo9UL6-6" target="TlHQc8iveEWoduccsFiI-81" edge="1">
          <mxGeometry width="100" height="100" relative="1" as="geometry">
            <mxPoint x="850" y="-10" as="sourcePoint" />
            <mxPoint x="950" y="-110" as="targetPoint" />
          </mxGeometry>
        </mxCell>
        <mxCell id="TlHQc8iveEWoduccsFiI-92" value="" style="edgeStyle=orthogonalEdgeStyle;fontSize=12;html=1;endArrow=ERoneToMany;entryX=1;entryY=0.5;entryDx=0;entryDy=0;exitX=0;exitY=0.5;exitDx=0;exitDy=0;" parent="1" source="1oH-_9PxXLcQLjHo9UL6-86" target="TlHQc8iveEWoduccsFiI-78" edge="1">
          <mxGeometry width="100" height="100" relative="1" as="geometry">
            <mxPoint x="1080" y="70" as="sourcePoint" />
            <mxPoint x="800" y="70" as="targetPoint" />
          </mxGeometry>
        </mxCell>
        <mxCell id="TlHQc8iveEWoduccsFiI-93" value="rating_passenger2driver" style="shape=table;startSize=30;container=1;collapsible=1;childLayout=tableLayout;fixedRows=1;rowLines=0;fontStyle=1;align=center;resizeLast=1;" parent="1" vertex="1">
          <mxGeometry x="655" y="-1060" width="250" height="240" as="geometry" />
        </mxCell>
        <mxCell id="TlHQc8iveEWoduccsFiI-94" value="" style="shape=partialRectangle;collapsible=0;dropTarget=0;pointerEvents=0;fillColor=none;top=0;left=0;bottom=1;right=0;points=[[0,0.5],[1,0.5]];portConstraint=eastwest;" parent="TlHQc8iveEWoduccsFiI-93" vertex="1">
          <mxGeometry y="30" width="250" height="30" as="geometry" />
        </mxCell>
        <mxCell id="TlHQc8iveEWoduccsFiI-95" value="PK" style="shape=partialRectangle;connectable=0;fillColor=none;top=0;left=0;bottom=0;right=0;fontStyle=1;overflow=hidden;" parent="TlHQc8iveEWoduccsFiI-94" vertex="1">
          <mxGeometry width="30" height="30" as="geometry" />
        </mxCell>
        <mxCell id="TlHQc8iveEWoduccsFiI-96" value="id INT NOT NULL" style="shape=partialRectangle;connectable=0;fillColor=none;top=0;left=0;bottom=0;right=0;align=left;spacingLeft=6;fontStyle=5;overflow=hidden;" parent="TlHQc8iveEWoduccsFiI-94" vertex="1">
          <mxGeometry x="30" width="220" height="30" as="geometry" />
        </mxCell>
        <mxCell id="TlHQc8iveEWoduccsFiI-97" value="" style="shape=partialRectangle;collapsible=0;dropTarget=0;pointerEvents=0;fillColor=none;top=0;left=0;bottom=0;right=0;points=[[0,0.5],[1,0.5]];portConstraint=eastwest;" parent="TlHQc8iveEWoduccsFiI-93" vertex="1">
          <mxGeometry y="60" width="250" height="30" as="geometry" />
        </mxCell>
        <mxCell id="TlHQc8iveEWoduccsFiI-98" value="FK" style="shape=partialRectangle;connectable=0;fillColor=none;top=0;left=0;bottom=0;right=0;editable=1;overflow=hidden;" parent="TlHQc8iveEWoduccsFiI-97" vertex="1">
          <mxGeometry width="30" height="30" as="geometry" />
        </mxCell>
        <mxCell id="TlHQc8iveEWoduccsFiI-99" value="passenger INT NOT NULL" style="shape=partialRectangle;connectable=0;fillColor=none;top=0;left=0;bottom=0;right=0;align=left;spacingLeft=6;overflow=hidden;" parent="TlHQc8iveEWoduccsFiI-97" vertex="1">
          <mxGeometry x="30" width="220" height="30" as="geometry" />
        </mxCell>
        <mxCell id="TlHQc8iveEWoduccsFiI-100" value="" style="shape=partialRectangle;collapsible=0;dropTarget=0;pointerEvents=0;fillColor=none;top=0;left=0;bottom=0;right=0;points=[[0,0.5],[1,0.5]];portConstraint=eastwest;" parent="TlHQc8iveEWoduccsFiI-93" vertex="1">
          <mxGeometry y="90" width="250" height="30" as="geometry" />
        </mxCell>
        <mxCell id="TlHQc8iveEWoduccsFiI-101" value="FK" style="shape=partialRectangle;connectable=0;fillColor=none;top=0;left=0;bottom=0;right=0;editable=1;overflow=hidden;" parent="TlHQc8iveEWoduccsFiI-100" vertex="1">
          <mxGeometry width="30" height="30" as="geometry" />
        </mxCell>
        <mxCell id="TlHQc8iveEWoduccsFiI-102" value="driver_id INT NOT NULL" style="shape=partialRectangle;connectable=0;fillColor=none;top=0;left=0;bottom=0;right=0;align=left;spacingLeft=6;overflow=hidden;" parent="TlHQc8iveEWoduccsFiI-100" vertex="1">
          <mxGeometry x="30" width="220" height="30" as="geometry" />
        </mxCell>
        <mxCell id="TlHQc8iveEWoduccsFiI-103" value="" style="shape=partialRectangle;collapsible=0;dropTarget=0;pointerEvents=0;fillColor=none;top=0;left=0;bottom=0;right=0;points=[[0,0.5],[1,0.5]];portConstraint=eastwest;" parent="TlHQc8iveEWoduccsFiI-93" vertex="1">
          <mxGeometry y="120" width="250" height="30" as="geometry" />
        </mxCell>
        <mxCell id="TlHQc8iveEWoduccsFiI-104" value="" style="shape=partialRectangle;connectable=0;fillColor=none;top=0;left=0;bottom=0;right=0;editable=1;overflow=hidden;" parent="TlHQc8iveEWoduccsFiI-103" vertex="1">
          <mxGeometry width="30" height="30" as="geometry" />
        </mxCell>
        <mxCell id="TlHQc8iveEWoduccsFiI-105" value="time_create TIMESTAMP NOT NULL" style="shape=partialRectangle;connectable=0;fillColor=none;top=0;left=0;bottom=0;right=0;align=left;spacingLeft=6;overflow=hidden;" parent="TlHQc8iveEWoduccsFiI-103" vertex="1">
          <mxGeometry x="30" width="220" height="30" as="geometry" />
        </mxCell>
        <mxCell id="TlHQc8iveEWoduccsFiI-161" value="" style="shape=partialRectangle;collapsible=0;dropTarget=0;pointerEvents=0;fillColor=none;top=0;left=0;bottom=0;right=0;points=[[0,0.5],[1,0.5]];portConstraint=eastwest;" parent="TlHQc8iveEWoduccsFiI-93" vertex="1">
          <mxGeometry y="150" width="250" height="30" as="geometry" />
        </mxCell>
        <mxCell id="TlHQc8iveEWoduccsFiI-162" value="FK" style="shape=partialRectangle;connectable=0;fillColor=none;top=0;left=0;bottom=0;right=0;editable=1;overflow=hidden;" parent="TlHQc8iveEWoduccsFiI-161" vertex="1">
          <mxGeometry width="30" height="30" as="geometry" />
        </mxCell>
        <mxCell id="TlHQc8iveEWoduccsFiI-163" value="order_id INT NOT NULL" style="shape=partialRectangle;connectable=0;fillColor=none;top=0;left=0;bottom=0;right=0;align=left;spacingLeft=6;overflow=hidden;" parent="TlHQc8iveEWoduccsFiI-161" vertex="1">
          <mxGeometry x="30" width="220" height="30" as="geometry" />
        </mxCell>
        <mxCell id="TlHQc8iveEWoduccsFiI-106" value="" style="shape=partialRectangle;collapsible=0;dropTarget=0;pointerEvents=0;fillColor=none;top=0;left=0;bottom=0;right=0;points=[[0,0.5],[1,0.5]];portConstraint=eastwest;" parent="TlHQc8iveEWoduccsFiI-93" vertex="1">
          <mxGeometry y="180" width="250" height="30" as="geometry" />
        </mxCell>
        <mxCell id="TlHQc8iveEWoduccsFiI-107" value="" style="shape=partialRectangle;connectable=0;fillColor=none;top=0;left=0;bottom=0;right=0;editable=1;overflow=hidden;" parent="TlHQc8iveEWoduccsFiI-106" vertex="1">
          <mxGeometry width="30" height="30" as="geometry" />
        </mxCell>
        <mxCell id="TlHQc8iveEWoduccsFiI-108" value="raring DECIMAL (оценка от 1 до 5)" style="shape=partialRectangle;connectable=0;fillColor=none;top=0;left=0;bottom=0;right=0;align=left;spacingLeft=6;overflow=hidden;" parent="TlHQc8iveEWoduccsFiI-106" vertex="1">
          <mxGeometry x="30" width="220" height="30" as="geometry" />
        </mxCell>
        <mxCell id="TlHQc8iveEWoduccsFiI-109" value="" style="edgeStyle=orthogonalEdgeStyle;fontSize=12;html=1;endArrow=ERoneToMany;entryX=1;entryY=0.5;entryDx=0;entryDy=0;exitX=0;exitY=0.5;exitDx=0;exitDy=0;" parent="1" source="1oH-_9PxXLcQLjHo9UL6-86" target="TlHQc8iveEWoduccsFiI-100" edge="1">
          <mxGeometry width="100" height="100" relative="1" as="geometry">
            <mxPoint x="460" y="-110" as="sourcePoint" />
            <mxPoint x="610" y="-190" as="targetPoint" />
          </mxGeometry>
        </mxCell>
        <mxCell id="TlHQc8iveEWoduccsFiI-110" value="" style="fontSize=12;html=1;endArrow=ERoneToMany;entryX=0;entryY=0.5;entryDx=0;entryDy=0;exitX=0;exitY=0.5;exitDx=0;exitDy=0;edgeStyle=orthogonalEdgeStyle;" parent="1" source="1oH-_9PxXLcQLjHo9UL6-6" target="TlHQc8iveEWoduccsFiI-97" edge="1">
          <mxGeometry width="100" height="100" relative="1" as="geometry">
            <mxPoint x="-140" y="-50" as="sourcePoint" />
            <mxPoint x="20" y="-175" as="targetPoint" />
          </mxGeometry>
        </mxCell>
        <mxCell id="TlHQc8iveEWoduccsFiI-111" value="taxi_order" style="shape=table;startSize=30;container=1;collapsible=1;childLayout=tableLayout;fixedRows=1;rowLines=0;fontStyle=1;align=center;resizeLast=1;" parent="1" vertex="1">
          <mxGeometry x="655" y="-790" width="260" height="380" as="geometry" />
        </mxCell>
        <mxCell id="TlHQc8iveEWoduccsFiI-112" value="" style="shape=partialRectangle;collapsible=0;dropTarget=0;pointerEvents=0;fillColor=none;top=0;left=0;bottom=1;right=0;points=[[0,0.5],[1,0.5]];portConstraint=eastwest;" parent="TlHQc8iveEWoduccsFiI-111" vertex="1">
          <mxGeometry y="30" width="260" height="30" as="geometry" />
        </mxCell>
        <mxCell id="TlHQc8iveEWoduccsFiI-113" value="PK" style="shape=partialRectangle;connectable=0;fillColor=none;top=0;left=0;bottom=0;right=0;fontStyle=1;overflow=hidden;" parent="TlHQc8iveEWoduccsFiI-112" vertex="1">
          <mxGeometry width="30" height="30" as="geometry">
            <mxRectangle width="30" height="30" as="alternateBounds" />
          </mxGeometry>
        </mxCell>
        <mxCell id="TlHQc8iveEWoduccsFiI-114" value="id INT NOT NULL" style="shape=partialRectangle;connectable=0;fillColor=none;top=0;left=0;bottom=0;right=0;align=left;spacingLeft=6;fontStyle=5;overflow=hidden;" parent="TlHQc8iveEWoduccsFiI-112" vertex="1">
          <mxGeometry x="30" width="230" height="30" as="geometry">
            <mxRectangle width="230" height="30" as="alternateBounds" />
          </mxGeometry>
        </mxCell>
        <mxCell id="TlHQc8iveEWoduccsFiI-115" value="" style="shape=partialRectangle;collapsible=0;dropTarget=0;pointerEvents=0;fillColor=none;top=0;left=0;bottom=0;right=0;points=[[0,0.5],[1,0.5]];portConstraint=eastwest;" parent="TlHQc8iveEWoduccsFiI-111" vertex="1">
          <mxGeometry y="60" width="260" height="30" as="geometry" />
        </mxCell>
        <mxCell id="TlHQc8iveEWoduccsFiI-116" value="FK" style="shape=partialRectangle;connectable=0;fillColor=none;top=0;left=0;bottom=0;right=0;editable=1;overflow=hidden;" parent="TlHQc8iveEWoduccsFiI-115" vertex="1">
          <mxGeometry width="30" height="30" as="geometry">
            <mxRectangle width="30" height="30" as="alternateBounds" />
          </mxGeometry>
        </mxCell>
        <mxCell id="TlHQc8iveEWoduccsFiI-117" value="passenger_id INT NOT NULL" style="shape=partialRectangle;connectable=0;fillColor=none;top=0;left=0;bottom=0;right=0;align=left;spacingLeft=6;overflow=hidden;" parent="TlHQc8iveEWoduccsFiI-115" vertex="1">
          <mxGeometry x="30" width="230" height="30" as="geometry">
            <mxRectangle width="230" height="30" as="alternateBounds" />
          </mxGeometry>
        </mxCell>
        <mxCell id="TlHQc8iveEWoduccsFiI-118" value="" style="shape=partialRectangle;collapsible=0;dropTarget=0;pointerEvents=0;fillColor=none;top=0;left=0;bottom=0;right=0;points=[[0,0.5],[1,0.5]];portConstraint=eastwest;" parent="TlHQc8iveEWoduccsFiI-111" vertex="1">
          <mxGeometry y="90" width="260" height="30" as="geometry" />
        </mxCell>
        <mxCell id="TlHQc8iveEWoduccsFiI-119" value="" style="shape=partialRectangle;connectable=0;fillColor=none;top=0;left=0;bottom=0;right=0;editable=1;overflow=hidden;" parent="TlHQc8iveEWoduccsFiI-118" vertex="1">
          <mxGeometry width="30" height="30" as="geometry">
            <mxRectangle width="30" height="30" as="alternateBounds" />
          </mxGeometry>
        </mxCell>
        <mxCell id="TlHQc8iveEWoduccsFiI-120" value="driver_id INT" style="shape=partialRectangle;connectable=0;fillColor=none;top=0;left=0;bottom=0;right=0;align=left;spacingLeft=6;overflow=hidden;" parent="TlHQc8iveEWoduccsFiI-118" vertex="1">
          <mxGeometry x="30" width="230" height="30" as="geometry">
            <mxRectangle width="230" height="30" as="alternateBounds" />
          </mxGeometry>
        </mxCell>
        <mxCell id="TlHQc8iveEWoduccsFiI-121" value="" style="shape=partialRectangle;collapsible=0;dropTarget=0;pointerEvents=0;fillColor=none;top=0;left=0;bottom=0;right=0;points=[[0,0.5],[1,0.5]];portConstraint=eastwest;" parent="TlHQc8iveEWoduccsFiI-111" vertex="1">
          <mxGeometry y="120" width="260" height="30" as="geometry" />
        </mxCell>
        <mxCell id="TlHQc8iveEWoduccsFiI-122" value="" style="shape=partialRectangle;connectable=0;fillColor=none;top=0;left=0;bottom=0;right=0;editable=1;overflow=hidden;" parent="TlHQc8iveEWoduccsFiI-121" vertex="1">
          <mxGeometry width="30" height="30" as="geometry">
            <mxRectangle width="30" height="30" as="alternateBounds" />
          </mxGeometry>
        </mxCell>
        <mxCell id="TlHQc8iveEWoduccsFiI-123" value="time_create TIMESTAMP NOT NULL" style="shape=partialRectangle;connectable=0;fillColor=none;top=0;left=0;bottom=0;right=0;align=left;spacingLeft=6;overflow=hidden;" parent="TlHQc8iveEWoduccsFiI-121" vertex="1">
          <mxGeometry x="30" width="230" height="30" as="geometry">
            <mxRectangle width="230" height="30" as="alternateBounds" />
          </mxGeometry>
        </mxCell>
        <mxCell id="TlHQc8iveEWoduccsFiI-124" value="" style="shape=partialRectangle;collapsible=0;dropTarget=0;pointerEvents=0;fillColor=none;top=0;left=0;bottom=0;right=0;points=[[0,0.5],[1,0.5]];portConstraint=eastwest;" parent="TlHQc8iveEWoduccsFiI-111" vertex="1">
          <mxGeometry y="150" width="260" height="30" as="geometry" />
        </mxCell>
        <mxCell id="TlHQc8iveEWoduccsFiI-125" value="" style="shape=partialRectangle;connectable=0;fillColor=none;top=0;left=0;bottom=0;right=0;editable=1;overflow=hidden;" parent="TlHQc8iveEWoduccsFiI-124" vertex="1">
          <mxGeometry width="30" height="30" as="geometry">
            <mxRectangle width="30" height="30" as="alternateBounds" />
          </mxGeometry>
        </mxCell>
        <mxCell id="TlHQc8iveEWoduccsFiI-126" value="time_end TIMESTAMP" style="shape=partialRectangle;connectable=0;fillColor=none;top=0;left=0;bottom=0;right=0;align=left;spacingLeft=6;overflow=hidden;" parent="TlHQc8iveEWoduccsFiI-124" vertex="1">
          <mxGeometry x="30" width="230" height="30" as="geometry">
            <mxRectangle width="230" height="30" as="alternateBounds" />
          </mxGeometry>
        </mxCell>
        <mxCell id="TlHQc8iveEWoduccsFiI-127" value="" style="shape=partialRectangle;collapsible=0;dropTarget=0;pointerEvents=0;fillColor=none;top=0;left=0;bottom=0;right=0;points=[[0,0.5],[1,0.5]];portConstraint=eastwest;" parent="TlHQc8iveEWoduccsFiI-111" vertex="1">
          <mxGeometry y="180" width="260" height="80" as="geometry" />
        </mxCell>
        <mxCell id="TlHQc8iveEWoduccsFiI-128" value="FK" style="shape=partialRectangle;connectable=0;fillColor=none;top=0;left=0;bottom=0;right=0;editable=1;overflow=hidden;" parent="TlHQc8iveEWoduccsFiI-127" vertex="1">
          <mxGeometry width="30" height="80" as="geometry">
            <mxRectangle width="30" height="80" as="alternateBounds" />
          </mxGeometry>
        </mxCell>
        <mxCell id="TlHQc8iveEWoduccsFiI-129" value="status_id               int not null" style="shape=partialRectangle;connectable=0;fillColor=none;top=0;left=0;bottom=0;right=0;align=left;spacingLeft=6;overflow=hidden;" parent="TlHQc8iveEWoduccsFiI-127" vertex="1">
          <mxGeometry x="30" width="230" height="80" as="geometry">
            <mxRectangle width="230" height="80" as="alternateBounds" />
          </mxGeometry>
        </mxCell>
        <mxCell id="TlHQc8iveEWoduccsFiI-190" value="" style="shape=partialRectangle;collapsible=0;dropTarget=0;pointerEvents=0;fillColor=none;top=0;left=0;bottom=0;right=0;points=[[0,0.5],[1,0.5]];portConstraint=eastwest;" parent="TlHQc8iveEWoduccsFiI-111" vertex="1">
          <mxGeometry y="260" width="260" height="30" as="geometry" />
        </mxCell>
        <mxCell id="TlHQc8iveEWoduccsFiI-191" value="FK" style="shape=partialRectangle;connectable=0;fillColor=none;top=0;left=0;bottom=0;right=0;editable=1;overflow=hidden;" parent="TlHQc8iveEWoduccsFiI-190" vertex="1">
          <mxGeometry width="30" height="30" as="geometry">
            <mxRectangle width="30" height="30" as="alternateBounds" />
          </mxGeometry>
        </mxCell>
        <mxCell id="TlHQc8iveEWoduccsFiI-192" value="payment_id INT NOT NULL" style="shape=partialRectangle;connectable=0;fillColor=none;top=0;left=0;bottom=0;right=0;align=left;spacingLeft=6;overflow=hidden;" parent="TlHQc8iveEWoduccsFiI-190" vertex="1">
          <mxGeometry x="30" width="230" height="30" as="geometry">
            <mxRectangle width="230" height="30" as="alternateBounds" />
          </mxGeometry>
        </mxCell>
        <mxCell id="TlHQc8iveEWoduccsFiI-148" value="" style="shape=partialRectangle;collapsible=0;dropTarget=0;pointerEvents=0;fillColor=none;top=0;left=0;bottom=0;right=0;points=[[0,0.5],[1,0.5]];portConstraint=eastwest;" parent="TlHQc8iveEWoduccsFiI-111" vertex="1">
          <mxGeometry y="290" width="260" height="30" as="geometry" />
        </mxCell>
        <mxCell id="TlHQc8iveEWoduccsFiI-149" value="FK" style="shape=partialRectangle;connectable=0;fillColor=none;top=0;left=0;bottom=0;right=0;editable=1;overflow=hidden;" parent="TlHQc8iveEWoduccsFiI-148" vertex="1">
          <mxGeometry width="30" height="30" as="geometry">
            <mxRectangle width="30" height="30" as="alternateBounds" />
          </mxGeometry>
        </mxCell>
        <mxCell id="TlHQc8iveEWoduccsFiI-150" value="end_trip_address_id INT" style="shape=partialRectangle;connectable=0;fillColor=none;top=0;left=0;bottom=0;right=0;align=left;spacingLeft=6;overflow=hidden;" parent="TlHQc8iveEWoduccsFiI-148" vertex="1">
          <mxGeometry x="30" width="230" height="30" as="geometry">
            <mxRectangle width="230" height="30" as="alternateBounds" />
          </mxGeometry>
        </mxCell>
        <mxCell id="TlHQc8iveEWoduccsFiI-151" value="" style="shape=partialRectangle;collapsible=0;dropTarget=0;pointerEvents=0;fillColor=none;top=0;left=0;bottom=0;right=0;points=[[0,0.5],[1,0.5]];portConstraint=eastwest;" parent="TlHQc8iveEWoduccsFiI-111" vertex="1">
          <mxGeometry y="320" width="260" height="30" as="geometry" />
        </mxCell>
        <mxCell id="TlHQc8iveEWoduccsFiI-152" value="" style="shape=partialRectangle;connectable=0;fillColor=none;top=0;left=0;bottom=0;right=0;editable=1;overflow=hidden;" parent="TlHQc8iveEWoduccsFiI-151" vertex="1">
          <mxGeometry width="30" height="30" as="geometry">
            <mxRectangle width="30" height="30" as="alternateBounds" />
          </mxGeometry>
        </mxCell>
        <mxCell id="TlHQc8iveEWoduccsFiI-153" value="average_driver_speed DECIMAL" style="shape=partialRectangle;connectable=0;fillColor=none;top=0;left=0;bottom=0;right=0;align=left;spacingLeft=6;overflow=hidden;" parent="TlHQc8iveEWoduccsFiI-151" vertex="1">
          <mxGeometry x="30" width="230" height="30" as="geometry">
            <mxRectangle width="230" height="30" as="alternateBounds" />
          </mxGeometry>
        </mxCell>
        <mxCell id="TlHQc8iveEWoduccsFiI-154" value="" style="edgeStyle=orthogonalEdgeStyle;fontSize=12;html=1;endArrow=ERoneToMany;entryX=0;entryY=0.5;entryDx=0;entryDy=0;exitX=0;exitY=0.5;exitDx=0;exitDy=0;" parent="1" source="1oH-_9PxXLcQLjHo9UL6-6" target="TlHQc8iveEWoduccsFiI-115" edge="1">
          <mxGeometry width="100" height="100" relative="1" as="geometry">
            <mxPoint x="440" y="-200" as="sourcePoint" />
            <mxPoint x="540" y="-300" as="targetPoint" />
          </mxGeometry>
        </mxCell>
        <mxCell id="TlHQc8iveEWoduccsFiI-155" value="" style="edgeStyle=orthogonalEdgeStyle;fontSize=12;html=1;endArrow=ERoneToMany;entryX=1;entryY=0.5;entryDx=0;entryDy=0;exitX=1;exitY=0.5;exitDx=0;exitDy=0;" parent="1" source="1oH-_9PxXLcQLjHo9UL6-86" target="TlHQc8iveEWoduccsFiI-118" edge="1">
          <mxGeometry width="100" height="100" relative="1" as="geometry">
            <mxPoint x="1100" y="-70" as="sourcePoint" />
            <mxPoint x="1200" y="-170" as="targetPoint" />
            <Array as="points">
              <mxPoint x="2150" y="75" />
              <mxPoint x="2150" y="-685" />
            </Array>
          </mxGeometry>
        </mxCell>
        <mxCell id="TlHQc8iveEWoduccsFiI-156" value="" style="edgeStyle=orthogonalEdgeStyle;fontSize=12;html=1;endArrow=ERoneToMany;entryX=0;entryY=0.5;entryDx=0;entryDy=0;exitX=1;exitY=0.5;exitDx=0;exitDy=0;" parent="1" source="1oH-_9PxXLcQLjHo9UL6-22" target="TlHQc8iveEWoduccsFiI-148" edge="1">
          <mxGeometry width="100" height="100" relative="1" as="geometry">
            <mxPoint x="460" y="-80" as="sourcePoint" />
            <mxPoint x="560" y="-180" as="targetPoint" />
            <Array as="points">
              <mxPoint x="450" y="545" />
              <mxPoint x="450" y="-485" />
            </Array>
          </mxGeometry>
        </mxCell>
        <mxCell id="TlHQc8iveEWoduccsFiI-160" value="" style="edgeStyle=orthogonalEdgeStyle;fontSize=12;html=1;endArrow=ERmandOne;startArrow=ERmandOne;exitX=0;exitY=0.5;exitDx=0;exitDy=0;entryX=0;entryY=0.5;entryDx=0;entryDy=0;" parent="1" source="TlHQc8iveEWoduccsFiI-157" target="TlHQc8iveEWoduccsFiI-112" edge="1">
          <mxGeometry width="100" height="100" relative="1" as="geometry">
            <mxPoint x="590" y="210" as="sourcePoint" />
            <mxPoint x="690" y="110" as="targetPoint" />
            <Array as="points">
              <mxPoint x="560" y="485" />
              <mxPoint x="560" y="-745" />
            </Array>
          </mxGeometry>
        </mxCell>
        <mxCell id="TlHQc8iveEWoduccsFiI-164" value="" style="edgeStyle=orthogonalEdgeStyle;fontSize=12;html=1;endArrow=ERmandOne;startArrow=ERmandOne;entryX=0;entryY=0.5;entryDx=0;entryDy=0;exitX=0;exitY=0.5;exitDx=0;exitDy=0;" parent="1" source="TlHQc8iveEWoduccsFiI-112" target="TlHQc8iveEWoduccsFiI-161" edge="1">
          <mxGeometry width="100" height="100" relative="1" as="geometry">
            <mxPoint x="425" y="-820" as="sourcePoint" />
            <mxPoint x="525" y="-920" as="targetPoint" />
            <Array as="points">
              <mxPoint x="560" y="-745" />
              <mxPoint x="560" y="-895" />
            </Array>
          </mxGeometry>
        </mxCell>
        <mxCell id="TlHQc8iveEWoduccsFiI-165" value="way" style="shape=table;startSize=30;container=1;collapsible=1;childLayout=tableLayout;fixedRows=1;rowLines=0;fontStyle=1;align=center;resizeLast=1;" parent="1" vertex="1">
          <mxGeometry x="655" y="-400" width="350" height="240" as="geometry" />
        </mxCell>
        <mxCell id="TlHQc8iveEWoduccsFiI-166" value="" style="shape=partialRectangle;collapsible=0;dropTarget=0;pointerEvents=0;fillColor=none;top=0;left=0;bottom=1;right=0;points=[[0,0.5],[1,0.5]];portConstraint=eastwest;" parent="TlHQc8iveEWoduccsFiI-165" vertex="1">
          <mxGeometry y="30" width="350" height="30" as="geometry" />
        </mxCell>
        <mxCell id="TlHQc8iveEWoduccsFiI-167" value="PK" style="shape=partialRectangle;connectable=0;fillColor=none;top=0;left=0;bottom=0;right=0;fontStyle=1;overflow=hidden;" parent="TlHQc8iveEWoduccsFiI-166" vertex="1">
          <mxGeometry width="30" height="30" as="geometry" />
        </mxCell>
        <mxCell id="TlHQc8iveEWoduccsFiI-168" value="id INT NOT NULL" style="shape=partialRectangle;connectable=0;fillColor=none;top=0;left=0;bottom=0;right=0;align=left;spacingLeft=6;fontStyle=5;overflow=hidden;" parent="TlHQc8iveEWoduccsFiI-166" vertex="1">
          <mxGeometry x="30" width="320" height="30" as="geometry" />
        </mxCell>
        <mxCell id="TlHQc8iveEWoduccsFiI-169" value="" style="shape=partialRectangle;collapsible=0;dropTarget=0;pointerEvents=0;fillColor=none;top=0;left=0;bottom=0;right=0;points=[[0,0.5],[1,0.5]];portConstraint=eastwest;" parent="TlHQc8iveEWoduccsFiI-165" vertex="1">
          <mxGeometry y="60" width="350" height="30" as="geometry" />
        </mxCell>
        <mxCell id="TlHQc8iveEWoduccsFiI-170" value="FK" style="shape=partialRectangle;connectable=0;fillColor=none;top=0;left=0;bottom=0;right=0;editable=1;overflow=hidden;" parent="TlHQc8iveEWoduccsFiI-169" vertex="1">
          <mxGeometry width="30" height="30" as="geometry" />
        </mxCell>
        <mxCell id="TlHQc8iveEWoduccsFiI-171" value="from_addess_id INT NOT NULL" style="shape=partialRectangle;connectable=0;fillColor=none;top=0;left=0;bottom=0;right=0;align=left;spacingLeft=6;overflow=hidden;" parent="TlHQc8iveEWoduccsFiI-169" vertex="1">
          <mxGeometry x="30" width="320" height="30" as="geometry" />
        </mxCell>
        <mxCell id="TlHQc8iveEWoduccsFiI-172" value="" style="shape=partialRectangle;collapsible=0;dropTarget=0;pointerEvents=0;fillColor=none;top=0;left=0;bottom=0;right=0;points=[[0,0.5],[1,0.5]];portConstraint=eastwest;" parent="TlHQc8iveEWoduccsFiI-165" vertex="1">
          <mxGeometry y="90" width="350" height="30" as="geometry" />
        </mxCell>
        <mxCell id="TlHQc8iveEWoduccsFiI-173" value="FK" style="shape=partialRectangle;connectable=0;fillColor=none;top=0;left=0;bottom=0;right=0;editable=1;overflow=hidden;" parent="TlHQc8iveEWoduccsFiI-172" vertex="1">
          <mxGeometry width="30" height="30" as="geometry" />
        </mxCell>
        <mxCell id="TlHQc8iveEWoduccsFiI-174" value="to_address_id INT NOT NULL" style="shape=partialRectangle;connectable=0;fillColor=none;top=0;left=0;bottom=0;right=0;align=left;spacingLeft=6;overflow=hidden;" parent="TlHQc8iveEWoduccsFiI-172" vertex="1">
          <mxGeometry x="30" width="320" height="30" as="geometry" />
        </mxCell>
        <mxCell id="Il9QLbK23yO8a5Af8rnY-5" value="" style="shape=partialRectangle;collapsible=0;dropTarget=0;pointerEvents=0;fillColor=none;top=0;left=0;bottom=0;right=0;points=[[0,0.5],[1,0.5]];portConstraint=eastwest;" parent="TlHQc8iveEWoduccsFiI-165" vertex="1">
          <mxGeometry y="120" width="350" height="30" as="geometry" />
        </mxCell>
        <mxCell id="Il9QLbK23yO8a5Af8rnY-6" value="" style="shape=partialRectangle;connectable=0;fillColor=none;top=0;left=0;bottom=0;right=0;editable=1;overflow=hidden;" parent="Il9QLbK23yO8a5Af8rnY-5" vertex="1">
          <mxGeometry width="30" height="30" as="geometry" />
        </mxCell>
        <mxCell id="Il9QLbK23yO8a5Af8rnY-7" value="distance DECIMAL NOT NULL" style="shape=partialRectangle;connectable=0;fillColor=none;top=0;left=0;bottom=0;right=0;align=left;spacingLeft=6;overflow=hidden;" parent="Il9QLbK23yO8a5Af8rnY-5" vertex="1">
          <mxGeometry x="30" width="320" height="30" as="geometry" />
        </mxCell>
        <mxCell id="TlHQc8iveEWoduccsFiI-175" value="" style="shape=partialRectangle;collapsible=0;dropTarget=0;pointerEvents=0;fillColor=none;top=0;left=0;bottom=0;right=0;points=[[0,0.5],[1,0.5]];portConstraint=eastwest;" parent="TlHQc8iveEWoduccsFiI-165" vertex="1">
          <mxGeometry y="150" width="350" height="30" as="geometry" />
        </mxCell>
        <mxCell id="TlHQc8iveEWoduccsFiI-176" value="FK" style="shape=partialRectangle;connectable=0;fillColor=none;top=0;left=0;bottom=0;right=0;editable=1;overflow=hidden;" parent="TlHQc8iveEWoduccsFiI-175" vertex="1">
          <mxGeometry width="30" height="30" as="geometry" />
        </mxCell>
        <mxCell id="TlHQc8iveEWoduccsFiI-177" value="order_id INT NOT NULL" style="shape=partialRectangle;connectable=0;fillColor=none;top=0;left=0;bottom=0;right=0;align=left;spacingLeft=6;overflow=hidden;" parent="TlHQc8iveEWoduccsFiI-175" vertex="1">
          <mxGeometry x="30" width="320" height="30" as="geometry" />
        </mxCell>
        <mxCell id="TlHQc8iveEWoduccsFiI-182" value="" style="shape=partialRectangle;collapsible=0;dropTarget=0;pointerEvents=0;fillColor=none;top=0;left=0;bottom=0;right=0;points=[[0,0.5],[1,0.5]];portConstraint=eastwest;" parent="TlHQc8iveEWoduccsFiI-165" vertex="1">
          <mxGeometry y="180" width="350" height="30" as="geometry" />
        </mxCell>
        <mxCell id="TlHQc8iveEWoduccsFiI-183" value="FK" style="shape=partialRectangle;connectable=0;fillColor=none;top=0;left=0;bottom=0;right=0;editable=1;overflow=hidden;" parent="TlHQc8iveEWoduccsFiI-182" vertex="1">
          <mxGeometry width="30" height="30" as="geometry" />
        </mxCell>
        <mxCell id="TlHQc8iveEWoduccsFiI-184" value="preview_way_id INT (предыдущий путь)" style="shape=partialRectangle;connectable=0;fillColor=none;top=0;left=0;bottom=0;right=0;align=left;spacingLeft=6;overflow=hidden;" parent="TlHQc8iveEWoduccsFiI-182" vertex="1">
          <mxGeometry x="30" width="320" height="30" as="geometry" />
        </mxCell>
        <mxCell id="TlHQc8iveEWoduccsFiI-189" value="" style="edgeStyle=orthogonalEdgeStyle;fontSize=12;html=1;endArrow=ERmandOne;startArrow=ERmandOne;entryX=0;entryY=0.5;entryDx=0;entryDy=0;exitX=0;exitY=0.5;exitDx=0;exitDy=0;" parent="TlHQc8iveEWoduccsFiI-165" source="TlHQc8iveEWoduccsFiI-166" target="TlHQc8iveEWoduccsFiI-182" edge="1">
          <mxGeometry width="100" height="100" relative="1" as="geometry">
            <mxPoint x="130" y="330" as="sourcePoint" />
            <mxPoint x="230" y="230" as="targetPoint" />
            <Array as="points">
              <mxPoint x="-30" y="45" />
              <mxPoint x="-30" y="195" />
            </Array>
          </mxGeometry>
        </mxCell>
        <mxCell id="TlHQc8iveEWoduccsFiI-185" value="" style="edgeStyle=orthogonalEdgeStyle;fontSize=12;html=1;endArrow=ERoneToMany;entryX=0;entryY=0.5;entryDx=0;entryDy=0;exitX=1;exitY=0.5;exitDx=0;exitDy=0;" parent="1" source="1oH-_9PxXLcQLjHo9UL6-22" target="TlHQc8iveEWoduccsFiI-169" edge="1">
          <mxGeometry width="100" height="100" relative="1" as="geometry">
            <mxPoint x="420" y="550" as="sourcePoint" />
            <mxPoint x="430" y="-370" as="targetPoint" />
          </mxGeometry>
        </mxCell>
        <mxCell id="TlHQc8iveEWoduccsFiI-187" value="" style="edgeStyle=orthogonalEdgeStyle;fontSize=12;html=1;endArrow=ERoneToMany;entryX=0;entryY=0.5;entryDx=0;entryDy=0;exitX=1;exitY=0.5;exitDx=0;exitDy=0;" parent="1" source="1oH-_9PxXLcQLjHo9UL6-22" target="TlHQc8iveEWoduccsFiI-172" edge="1">
          <mxGeometry width="100" height="100" relative="1" as="geometry">
            <mxPoint x="670" as="sourcePoint" />
            <mxPoint x="770" y="-100" as="targetPoint" />
            <Array as="points">
              <mxPoint x="540" y="545" />
              <mxPoint x="540" y="-295" />
            </Array>
          </mxGeometry>
        </mxCell>
        <mxCell id="TlHQc8iveEWoduccsFiI-188" value="" style="edgeStyle=orthogonalEdgeStyle;fontSize=12;html=1;endArrow=ERmandOne;startArrow=ERmandOne;entryX=0;entryY=0.5;entryDx=0;entryDy=0;exitX=0;exitY=0.5;exitDx=0;exitDy=0;" parent="1" source="TlHQc8iveEWoduccsFiI-112" target="TlHQc8iveEWoduccsFiI-175" edge="1">
          <mxGeometry width="100" height="100" relative="1" as="geometry">
            <mxPoint x="690" y="-90" as="sourcePoint" />
            <mxPoint x="790" y="-190" as="targetPoint" />
            <Array as="points">
              <mxPoint x="600" y="-745" />
              <mxPoint x="600" y="-235" />
            </Array>
          </mxGeometry>
        </mxCell>
        <mxCell id="TlHQc8iveEWoduccsFiI-193" value="payment" style="shape=table;startSize=30;container=1;collapsible=1;childLayout=tableLayout;fixedRows=1;rowLines=0;fontStyle=1;align=center;resizeLast=1;" parent="1" vertex="1">
          <mxGeometry x="940" y="10" width="270" height="180" as="geometry" />
        </mxCell>
        <mxCell id="TlHQc8iveEWoduccsFiI-194" value="" style="shape=partialRectangle;collapsible=0;dropTarget=0;pointerEvents=0;fillColor=none;top=0;left=0;bottom=1;right=0;points=[[0,0.5],[1,0.5]];portConstraint=eastwest;" parent="TlHQc8iveEWoduccsFiI-193" vertex="1">
          <mxGeometry y="30" width="270" height="30" as="geometry" />
        </mxCell>
        <mxCell id="TlHQc8iveEWoduccsFiI-195" value="PK" style="shape=partialRectangle;connectable=0;fillColor=none;top=0;left=0;bottom=0;right=0;fontStyle=1;overflow=hidden;" parent="TlHQc8iveEWoduccsFiI-194" vertex="1">
          <mxGeometry width="30" height="30" as="geometry">
            <mxRectangle width="30" height="30" as="alternateBounds" />
          </mxGeometry>
        </mxCell>
        <mxCell id="TlHQc8iveEWoduccsFiI-196" value="id INT NOT NULL" style="shape=partialRectangle;connectable=0;fillColor=none;top=0;left=0;bottom=0;right=0;align=left;spacingLeft=6;fontStyle=5;overflow=hidden;" parent="TlHQc8iveEWoduccsFiI-194" vertex="1">
          <mxGeometry x="30" width="240" height="30" as="geometry">
            <mxRectangle width="240" height="30" as="alternateBounds" />
          </mxGeometry>
        </mxCell>
        <mxCell id="TlHQc8iveEWoduccsFiI-197" value="" style="shape=partialRectangle;collapsible=0;dropTarget=0;pointerEvents=0;fillColor=none;top=0;left=0;bottom=0;right=0;points=[[0,0.5],[1,0.5]];portConstraint=eastwest;" parent="TlHQc8iveEWoduccsFiI-193" vertex="1">
          <mxGeometry y="60" width="270" height="30" as="geometry" />
        </mxCell>
        <mxCell id="TlHQc8iveEWoduccsFiI-198" value="" style="shape=partialRectangle;connectable=0;fillColor=none;top=0;left=0;bottom=0;right=0;editable=1;overflow=hidden;" parent="TlHQc8iveEWoduccsFiI-197" vertex="1">
          <mxGeometry width="30" height="30" as="geometry">
            <mxRectangle width="30" height="30" as="alternateBounds" />
          </mxGeometry>
        </mxCell>
        <mxCell id="TlHQc8iveEWoduccsFiI-199" value="amount_to_paid DECIMAL NOT NULL" style="shape=partialRectangle;connectable=0;fillColor=none;top=0;left=0;bottom=0;right=0;align=left;spacingLeft=6;overflow=hidden;" parent="TlHQc8iveEWoduccsFiI-197" vertex="1">
          <mxGeometry x="30" width="240" height="30" as="geometry">
            <mxRectangle width="240" height="30" as="alternateBounds" />
          </mxGeometry>
        </mxCell>
        <mxCell id="TlHQc8iveEWoduccsFiI-200" value="" style="shape=partialRectangle;collapsible=0;dropTarget=0;pointerEvents=0;fillColor=none;top=0;left=0;bottom=0;right=0;points=[[0,0.5],[1,0.5]];portConstraint=eastwest;" parent="TlHQc8iveEWoduccsFiI-193" vertex="1">
          <mxGeometry y="90" width="270" height="30" as="geometry" />
        </mxCell>
        <mxCell id="TlHQc8iveEWoduccsFiI-201" value="FK" style="shape=partialRectangle;connectable=0;fillColor=none;top=0;left=0;bottom=0;right=0;editable=1;overflow=hidden;" parent="TlHQc8iveEWoduccsFiI-200" vertex="1">
          <mxGeometry width="30" height="30" as="geometry">
            <mxRectangle width="30" height="30" as="alternateBounds" />
          </mxGeometry>
        </mxCell>
        <mxCell id="TlHQc8iveEWoduccsFiI-202" value="currency_id INT NOT NULL" style="shape=partialRectangle;connectable=0;fillColor=none;top=0;left=0;bottom=0;right=0;align=left;spacingLeft=6;overflow=hidden;" parent="TlHQc8iveEWoduccsFiI-200" vertex="1">
          <mxGeometry x="30" width="240" height="30" as="geometry">
            <mxRectangle width="240" height="30" as="alternateBounds" />
          </mxGeometry>
        </mxCell>
        <mxCell id="TlHQc8iveEWoduccsFiI-208" value="" style="shape=partialRectangle;collapsible=0;dropTarget=0;pointerEvents=0;fillColor=none;top=0;left=0;bottom=0;right=0;points=[[0,0.5],[1,0.5]];portConstraint=eastwest;" parent="TlHQc8iveEWoduccsFiI-193" vertex="1">
          <mxGeometry y="120" width="270" height="30" as="geometry" />
        </mxCell>
        <mxCell id="TlHQc8iveEWoduccsFiI-209" value="FK" style="shape=partialRectangle;connectable=0;fillColor=none;top=0;left=0;bottom=0;right=0;editable=1;overflow=hidden;" parent="TlHQc8iveEWoduccsFiI-208" vertex="1">
          <mxGeometry width="30" height="30" as="geometry">
            <mxRectangle width="30" height="30" as="alternateBounds" />
          </mxGeometry>
        </mxCell>
        <mxCell id="TlHQc8iveEWoduccsFiI-210" value="type                int not null" style="shape=partialRectangle;connectable=0;fillColor=none;top=0;left=0;bottom=0;right=0;align=left;spacingLeft=6;overflow=hidden;" parent="TlHQc8iveEWoduccsFiI-208" vertex="1">
          <mxGeometry x="30" width="240" height="30" as="geometry">
            <mxRectangle width="240" height="30" as="alternateBounds" />
          </mxGeometry>
        </mxCell>
        <mxCell id="TlHQc8iveEWoduccsFiI-207" value="" style="edgeStyle=orthogonalEdgeStyle;fontSize=12;html=1;endArrow=ERmandOne;startArrow=ERmandOne;entryX=0;entryY=0.5;entryDx=0;entryDy=0;exitX=1;exitY=0.5;exitDx=0;exitDy=0;" parent="1" source="TlHQc8iveEWoduccsFiI-190" target="TlHQc8iveEWoduccsFiI-194" edge="1">
          <mxGeometry width="100" height="100" relative="1" as="geometry">
            <mxPoint x="950" y="-510" as="sourcePoint" />
            <mxPoint x="1050" y="-610" as="targetPoint" />
            <Array as="points">
              <mxPoint x="1075" y="-515" />
              <mxPoint x="1075" y="-90" />
              <mxPoint x="750" y="-90" />
              <mxPoint x="750" y="55" />
            </Array>
          </mxGeometry>
        </mxCell>
        <mxCell id="TlHQc8iveEWoduccsFiI-212" value="currency" style="shape=table;startSize=30;container=1;collapsible=1;childLayout=tableLayout;fixedRows=1;rowLines=0;fontStyle=1;align=center;resizeLast=1;" parent="1" vertex="1">
          <mxGeometry x="1580" y="-1060" width="260" height="150" as="geometry" />
        </mxCell>
        <mxCell id="TlHQc8iveEWoduccsFiI-213" value="" style="shape=partialRectangle;collapsible=0;dropTarget=0;pointerEvents=0;fillColor=none;top=0;left=0;bottom=1;right=0;points=[[0,0.5],[1,0.5]];portConstraint=eastwest;" parent="TlHQc8iveEWoduccsFiI-212" vertex="1">
          <mxGeometry y="30" width="260" height="30" as="geometry" />
        </mxCell>
        <mxCell id="TlHQc8iveEWoduccsFiI-214" value="PK" style="shape=partialRectangle;connectable=0;fillColor=none;top=0;left=0;bottom=0;right=0;fontStyle=1;overflow=hidden;" parent="TlHQc8iveEWoduccsFiI-213" vertex="1">
          <mxGeometry width="30" height="30" as="geometry" />
        </mxCell>
        <mxCell id="TlHQc8iveEWoduccsFiI-215" value="id INT NOT NULL" style="shape=partialRectangle;connectable=0;fillColor=none;top=0;left=0;bottom=0;right=0;align=left;spacingLeft=6;fontStyle=5;overflow=hidden;" parent="TlHQc8iveEWoduccsFiI-213" vertex="1">
          <mxGeometry x="30" width="230" height="30" as="geometry" />
        </mxCell>
        <mxCell id="TlHQc8iveEWoduccsFiI-216" value="" style="shape=partialRectangle;collapsible=0;dropTarget=0;pointerEvents=0;fillColor=none;top=0;left=0;bottom=0;right=0;points=[[0,0.5],[1,0.5]];portConstraint=eastwest;" parent="TlHQc8iveEWoduccsFiI-212" vertex="1">
          <mxGeometry y="60" width="260" height="30" as="geometry" />
        </mxCell>
        <mxCell id="TlHQc8iveEWoduccsFiI-217" value="" style="shape=partialRectangle;connectable=0;fillColor=none;top=0;left=0;bottom=0;right=0;editable=1;overflow=hidden;" parent="TlHQc8iveEWoduccsFiI-216" vertex="1">
          <mxGeometry width="30" height="30" as="geometry" />
        </mxCell>
        <mxCell id="TlHQc8iveEWoduccsFiI-218" value="name VARCHAR(50) NOT NULL" style="shape=partialRectangle;connectable=0;fillColor=none;top=0;left=0;bottom=0;right=0;align=left;spacingLeft=6;overflow=hidden;" parent="TlHQc8iveEWoduccsFiI-216" vertex="1">
          <mxGeometry x="30" width="230" height="30" as="geometry" />
        </mxCell>
        <mxCell id="TlHQc8iveEWoduccsFiI-219" value="" style="shape=partialRectangle;collapsible=0;dropTarget=0;pointerEvents=0;fillColor=none;top=0;left=0;bottom=0;right=0;points=[[0,0.5],[1,0.5]];portConstraint=eastwest;" parent="TlHQc8iveEWoduccsFiI-212" vertex="1">
          <mxGeometry y="90" width="260" height="30" as="geometry" />
        </mxCell>
        <mxCell id="TlHQc8iveEWoduccsFiI-220" value="" style="shape=partialRectangle;connectable=0;fillColor=none;top=0;left=0;bottom=0;right=0;editable=1;overflow=hidden;" parent="TlHQc8iveEWoduccsFiI-219" vertex="1">
          <mxGeometry width="30" height="30" as="geometry" />
        </mxCell>
        <mxCell id="TlHQc8iveEWoduccsFiI-221" value="abbreviation VARCHAR(8) NOT NULL" style="shape=partialRectangle;connectable=0;fillColor=none;top=0;left=0;bottom=0;right=0;align=left;spacingLeft=6;overflow=hidden;" parent="TlHQc8iveEWoduccsFiI-219" vertex="1">
          <mxGeometry x="30" width="230" height="30" as="geometry" />
        </mxCell>
        <mxCell id="TlHQc8iveEWoduccsFiI-225" value="" style="edgeStyle=orthogonalEdgeStyle;fontSize=12;html=1;endArrow=ERoneToMany;entryX=1;entryY=0.5;entryDx=0;entryDy=0;exitX=0;exitY=0.5;exitDx=0;exitDy=0;" parent="1" source="TlHQc8iveEWoduccsFiI-213" target="TlHQc8iveEWoduccsFiI-200" edge="1">
          <mxGeometry width="100" height="100" relative="1" as="geometry">
            <mxPoint x="1490" y="-750" as="sourcePoint" />
            <mxPoint x="1590" y="-850" as="targetPoint" />
          </mxGeometry>
        </mxCell>
        <mxCell id="TlHQc8iveEWoduccsFiI-226" value="rate" style="shape=table;startSize=30;container=1;collapsible=1;childLayout=tableLayout;fixedRows=1;rowLines=0;fontStyle=1;align=center;resizeLast=1;" parent="1" vertex="1">
          <mxGeometry x="2215" y="-1060" width="255" height="180" as="geometry" />
        </mxCell>
        <mxCell id="TlHQc8iveEWoduccsFiI-227" value="" style="shape=partialRectangle;collapsible=0;dropTarget=0;pointerEvents=0;fillColor=none;top=0;left=0;bottom=1;right=0;points=[[0,0.5],[1,0.5]];portConstraint=eastwest;" parent="TlHQc8iveEWoduccsFiI-226" vertex="1">
          <mxGeometry y="30" width="255" height="30" as="geometry" />
        </mxCell>
        <mxCell id="TlHQc8iveEWoduccsFiI-228" value="PK" style="shape=partialRectangle;connectable=0;fillColor=none;top=0;left=0;bottom=0;right=0;fontStyle=1;overflow=hidden;" parent="TlHQc8iveEWoduccsFiI-227" vertex="1">
          <mxGeometry width="30" height="30" as="geometry" />
        </mxCell>
        <mxCell id="TlHQc8iveEWoduccsFiI-229" value="id INT NOT NULL" style="shape=partialRectangle;connectable=0;fillColor=none;top=0;left=0;bottom=0;right=0;align=left;spacingLeft=6;fontStyle=5;overflow=hidden;" parent="TlHQc8iveEWoduccsFiI-227" vertex="1">
          <mxGeometry x="30" width="225" height="30" as="geometry" />
        </mxCell>
        <mxCell id="TlHQc8iveEWoduccsFiI-230" value="" style="shape=partialRectangle;collapsible=0;dropTarget=0;pointerEvents=0;fillColor=none;top=0;left=0;bottom=0;right=0;points=[[0,0.5],[1,0.5]];portConstraint=eastwest;" parent="TlHQc8iveEWoduccsFiI-226" vertex="1">
          <mxGeometry y="60" width="255" height="30" as="geometry" />
        </mxCell>
        <mxCell id="TlHQc8iveEWoduccsFiI-231" value="FK" style="shape=partialRectangle;connectable=0;fillColor=none;top=0;left=0;bottom=0;right=0;editable=1;overflow=hidden;" parent="TlHQc8iveEWoduccsFiI-230" vertex="1">
          <mxGeometry width="30" height="30" as="geometry" />
        </mxCell>
        <mxCell id="TlHQc8iveEWoduccsFiI-232" value="currency1_id INT NOT NULL" style="shape=partialRectangle;connectable=0;fillColor=none;top=0;left=0;bottom=0;right=0;align=left;spacingLeft=6;overflow=hidden;" parent="TlHQc8iveEWoduccsFiI-230" vertex="1">
          <mxGeometry x="30" width="225" height="30" as="geometry" />
        </mxCell>
        <mxCell id="TlHQc8iveEWoduccsFiI-233" value="" style="shape=partialRectangle;collapsible=0;dropTarget=0;pointerEvents=0;fillColor=none;top=0;left=0;bottom=0;right=0;points=[[0,0.5],[1,0.5]];portConstraint=eastwest;" parent="TlHQc8iveEWoduccsFiI-226" vertex="1">
          <mxGeometry y="90" width="255" height="30" as="geometry" />
        </mxCell>
        <mxCell id="TlHQc8iveEWoduccsFiI-234" value="FK" style="shape=partialRectangle;connectable=0;fillColor=none;top=0;left=0;bottom=0;right=0;editable=1;overflow=hidden;" parent="TlHQc8iveEWoduccsFiI-233" vertex="1">
          <mxGeometry width="30" height="30" as="geometry" />
        </mxCell>
        <mxCell id="TlHQc8iveEWoduccsFiI-235" value="currency2_id INT NOT NULL" style="shape=partialRectangle;connectable=0;fillColor=none;top=0;left=0;bottom=0;right=0;align=left;spacingLeft=6;overflow=hidden;" parent="TlHQc8iveEWoduccsFiI-233" vertex="1">
          <mxGeometry x="30" width="225" height="30" as="geometry" />
        </mxCell>
        <mxCell id="TlHQc8iveEWoduccsFiI-281" value="" style="shape=partialRectangle;collapsible=0;dropTarget=0;pointerEvents=0;fillColor=none;top=0;left=0;bottom=0;right=0;points=[[0,0.5],[1,0.5]];portConstraint=eastwest;" parent="TlHQc8iveEWoduccsFiI-226" vertex="1">
          <mxGeometry y="120" width="255" height="30" as="geometry" />
        </mxCell>
        <mxCell id="TlHQc8iveEWoduccsFiI-282" value="" style="shape=partialRectangle;connectable=0;fillColor=none;top=0;left=0;bottom=0;right=0;editable=1;overflow=hidden;" parent="TlHQc8iveEWoduccsFiI-281" vertex="1">
          <mxGeometry width="30" height="30" as="geometry" />
        </mxCell>
        <mxCell id="TlHQc8iveEWoduccsFiI-283" value="time_create TIMESTAMP NOT NULL" style="shape=partialRectangle;connectable=0;fillColor=none;top=0;left=0;bottom=0;right=0;align=left;spacingLeft=6;overflow=hidden;" parent="TlHQc8iveEWoduccsFiI-281" vertex="1">
          <mxGeometry x="30" width="225" height="30" as="geometry" />
        </mxCell>
        <mxCell id="TlHQc8iveEWoduccsFiI-236" value="" style="shape=partialRectangle;collapsible=0;dropTarget=0;pointerEvents=0;fillColor=none;top=0;left=0;bottom=0;right=0;points=[[0,0.5],[1,0.5]];portConstraint=eastwest;" parent="TlHQc8iveEWoduccsFiI-226" vertex="1">
          <mxGeometry y="150" width="255" height="30" as="geometry" />
        </mxCell>
        <mxCell id="TlHQc8iveEWoduccsFiI-237" value="" style="shape=partialRectangle;connectable=0;fillColor=none;top=0;left=0;bottom=0;right=0;editable=1;overflow=hidden;" parent="TlHQc8iveEWoduccsFiI-236" vertex="1">
          <mxGeometry width="30" height="30" as="geometry" />
        </mxCell>
        <mxCell id="TlHQc8iveEWoduccsFiI-238" value="rate DECIMAL NOT NULL" style="shape=partialRectangle;connectable=0;fillColor=none;top=0;left=0;bottom=0;right=0;align=left;spacingLeft=6;overflow=hidden;" parent="TlHQc8iveEWoduccsFiI-236" vertex="1">
          <mxGeometry x="30" width="225" height="30" as="geometry" />
        </mxCell>
        <mxCell id="TlHQc8iveEWoduccsFiI-256" value="currency2country" style="shape=table;startSize=30;container=1;collapsible=1;childLayout=tableLayout;fixedRows=1;rowLines=0;fontStyle=1;align=center;resizeLast=1;" parent="1" vertex="1">
          <mxGeometry x="1580" y="-890" width="260" height="120" as="geometry" />
        </mxCell>
        <mxCell id="TlHQc8iveEWoduccsFiI-270" value="" style="shape=partialRectangle;collapsible=0;dropTarget=0;pointerEvents=0;fillColor=none;top=0;left=0;bottom=0;right=0;points=[[0,0.5],[1,0.5]];portConstraint=eastwest;" parent="TlHQc8iveEWoduccsFiI-256" vertex="1">
          <mxGeometry y="30" width="260" height="30" as="geometry" />
        </mxCell>
        <mxCell id="TlHQc8iveEWoduccsFiI-271" value="FK" style="shape=partialRectangle;connectable=0;fillColor=none;top=0;left=0;bottom=0;right=0;fontStyle=0;overflow=hidden;" parent="TlHQc8iveEWoduccsFiI-270" vertex="1">
          <mxGeometry width="30" height="30" as="geometry" />
        </mxCell>
        <mxCell id="TlHQc8iveEWoduccsFiI-272" value="currency_id INT NOT NULL" style="shape=partialRectangle;connectable=0;fillColor=none;top=0;left=0;bottom=0;right=0;align=left;spacingLeft=6;fontStyle=0;overflow=hidden;" parent="TlHQc8iveEWoduccsFiI-270" vertex="1">
          <mxGeometry x="30" width="230" height="30" as="geometry" />
        </mxCell>
        <mxCell id="TlHQc8iveEWoduccsFiI-273" value="" style="shape=partialRectangle;collapsible=0;dropTarget=0;pointerEvents=0;fillColor=none;top=0;left=0;bottom=0;right=0;points=[[0,0.5],[1,0.5]];portConstraint=eastwest;" parent="TlHQc8iveEWoduccsFiI-256" vertex="1">
          <mxGeometry y="60" width="260" height="30" as="geometry" />
        </mxCell>
        <mxCell id="TlHQc8iveEWoduccsFiI-274" value="FK" style="shape=partialRectangle;connectable=0;fillColor=none;top=0;left=0;bottom=0;right=0;fontStyle=0;overflow=hidden;" parent="TlHQc8iveEWoduccsFiI-273" vertex="1">
          <mxGeometry width="30" height="30" as="geometry" />
        </mxCell>
        <mxCell id="TlHQc8iveEWoduccsFiI-275" value="country_id INT NOT NULL" style="shape=partialRectangle;connectable=0;fillColor=none;top=0;left=0;bottom=0;right=0;align=left;spacingLeft=6;fontStyle=0;overflow=hidden;" parent="TlHQc8iveEWoduccsFiI-273" vertex="1">
          <mxGeometry x="30" width="230" height="30" as="geometry" />
        </mxCell>
        <mxCell id="TlHQc8iveEWoduccsFiI-276" value="" style="edgeStyle=orthogonalEdgeStyle;fontSize=12;html=1;endArrow=ERoneToMany;entryX=0;entryY=0.5;entryDx=0;entryDy=0;exitX=0;exitY=0.5;exitDx=0;exitDy=0;" parent="1" source="TlHQc8iveEWoduccsFiI-213" target="TlHQc8iveEWoduccsFiI-270" edge="1">
          <mxGeometry width="100" height="100" relative="1" as="geometry">
            <mxPoint x="1580" y="-1010" as="sourcePoint" />
            <mxPoint x="1550" y="-960" as="targetPoint" />
            <Array as="points">
              <mxPoint x="1480" y="-1015" />
              <mxPoint x="1480" y="-845" />
            </Array>
          </mxGeometry>
        </mxCell>
        <mxCell id="TlHQc8iveEWoduccsFiI-277" value="" style="edgeStyle=orthogonalEdgeStyle;fontSize=12;html=1;endArrow=ERoneToMany;entryX=0;entryY=0.5;entryDx=0;entryDy=0;exitX=1;exitY=0.5;exitDx=0;exitDy=0;" parent="1" source="1oH-_9PxXLcQLjHo9UL6-70" target="TlHQc8iveEWoduccsFiI-273" edge="1">
          <mxGeometry width="100" height="100" relative="1" as="geometry">
            <mxPoint x="490" y="970" as="sourcePoint" />
            <mxPoint x="1570" y="-810" as="targetPoint" />
            <Array as="points">
              <mxPoint x="1480" y="1025" />
              <mxPoint x="1480" y="-815" />
            </Array>
          </mxGeometry>
        </mxCell>
        <mxCell id="TlHQc8iveEWoduccsFiI-279" value="" style="edgeStyle=orthogonalEdgeStyle;fontSize=12;html=1;endArrow=ERoneToMany;entryX=0;entryY=0.5;entryDx=0;entryDy=0;exitX=1;exitY=0.5;exitDx=0;exitDy=0;" parent="1" source="TlHQc8iveEWoduccsFiI-213" target="TlHQc8iveEWoduccsFiI-230" edge="1">
          <mxGeometry width="100" height="100" relative="1" as="geometry">
            <mxPoint x="2050" y="-870" as="sourcePoint" />
            <mxPoint x="2150" y="-970" as="targetPoint" />
          </mxGeometry>
        </mxCell>
        <mxCell id="TlHQc8iveEWoduccsFiI-280" value="" style="edgeStyle=orthogonalEdgeStyle;fontSize=12;html=1;endArrow=ERoneToMany;entryX=0;entryY=0.5;entryDx=0;entryDy=0;exitX=1;exitY=0.5;exitDx=0;exitDy=0;" parent="1" source="TlHQc8iveEWoduccsFiI-213" target="TlHQc8iveEWoduccsFiI-233" edge="1">
          <mxGeometry width="100" height="100" relative="1" as="geometry">
            <mxPoint x="2030" y="-860" as="sourcePoint" />
            <mxPoint x="2130" y="-960" as="targetPoint" />
          </mxGeometry>
        </mxCell>
        <mxCell id="TlHQc8iveEWoduccsFiI-289" value="refueling" style="shape=table;startSize=30;container=1;collapsible=1;childLayout=tableLayout;fixedRows=1;rowLines=0;fontStyle=1;align=center;resizeLast=1;" parent="1" vertex="1">
          <mxGeometry x="1590" y="290" width="460" height="240" as="geometry" />
        </mxCell>
        <mxCell id="TlHQc8iveEWoduccsFiI-290" value="" style="shape=partialRectangle;collapsible=0;dropTarget=0;pointerEvents=0;fillColor=none;top=0;left=0;bottom=1;right=0;points=[[0,0.5],[1,0.5]];portConstraint=eastwest;" parent="TlHQc8iveEWoduccsFiI-289" vertex="1">
          <mxGeometry y="30" width="460" height="30" as="geometry" />
        </mxCell>
        <mxCell id="TlHQc8iveEWoduccsFiI-291" value="PK" style="shape=partialRectangle;connectable=0;fillColor=none;top=0;left=0;bottom=0;right=0;fontStyle=1;overflow=hidden;" parent="TlHQc8iveEWoduccsFiI-290" vertex="1">
          <mxGeometry width="30" height="30" as="geometry" />
        </mxCell>
        <mxCell id="TlHQc8iveEWoduccsFiI-292" value="id INT NOT NULL" style="shape=partialRectangle;connectable=0;fillColor=none;top=0;left=0;bottom=0;right=0;align=left;spacingLeft=6;fontStyle=5;overflow=hidden;" parent="TlHQc8iveEWoduccsFiI-290" vertex="1">
          <mxGeometry x="30" width="430" height="30" as="geometry" />
        </mxCell>
        <mxCell id="TlHQc8iveEWoduccsFiI-296" value="" style="shape=partialRectangle;collapsible=0;dropTarget=0;pointerEvents=0;fillColor=none;top=0;left=0;bottom=0;right=0;points=[[0,0.5],[1,0.5]];portConstraint=eastwest;" parent="TlHQc8iveEWoduccsFiI-289" vertex="1">
          <mxGeometry y="60" width="460" height="30" as="geometry" />
        </mxCell>
        <mxCell id="TlHQc8iveEWoduccsFiI-297" value="FK" style="shape=partialRectangle;connectable=0;fillColor=none;top=0;left=0;bottom=0;right=0;editable=1;overflow=hidden;" parent="TlHQc8iveEWoduccsFiI-296" vertex="1">
          <mxGeometry width="30" height="30" as="geometry" />
        </mxCell>
        <mxCell id="TlHQc8iveEWoduccsFiI-298" value="driver_id INT NOT NULL" style="shape=partialRectangle;connectable=0;fillColor=none;top=0;left=0;bottom=0;right=0;align=left;spacingLeft=6;overflow=hidden;" parent="TlHQc8iveEWoduccsFiI-296" vertex="1">
          <mxGeometry x="30" width="430" height="30" as="geometry" />
        </mxCell>
        <mxCell id="TlHQc8iveEWoduccsFiI-293" value="" style="shape=partialRectangle;collapsible=0;dropTarget=0;pointerEvents=0;fillColor=none;top=0;left=0;bottom=0;right=0;points=[[0,0.5],[1,0.5]];portConstraint=eastwest;" parent="TlHQc8iveEWoduccsFiI-289" vertex="1">
          <mxGeometry y="90" width="460" height="30" as="geometry" />
        </mxCell>
        <mxCell id="TlHQc8iveEWoduccsFiI-294" value="FK" style="shape=partialRectangle;connectable=0;fillColor=none;top=0;left=0;bottom=0;right=0;editable=1;overflow=hidden;" parent="TlHQc8iveEWoduccsFiI-293" vertex="1">
          <mxGeometry width="30" height="30" as="geometry" />
        </mxCell>
        <mxCell id="TlHQc8iveEWoduccsFiI-295" value="car_id INT NOT NULL" style="shape=partialRectangle;connectable=0;fillColor=none;top=0;left=0;bottom=0;right=0;align=left;spacingLeft=6;overflow=hidden;" parent="TlHQc8iveEWoduccsFiI-293" vertex="1">
          <mxGeometry x="30" width="430" height="30" as="geometry" />
        </mxCell>
        <mxCell id="TlHQc8iveEWoduccsFiI-305" value="" style="shape=partialRectangle;collapsible=0;dropTarget=0;pointerEvents=0;fillColor=none;top=0;left=0;bottom=0;right=0;points=[[0,0.5],[1,0.5]];portConstraint=eastwest;" parent="TlHQc8iveEWoduccsFiI-289" vertex="1">
          <mxGeometry y="120" width="460" height="30" as="geometry" />
        </mxCell>
        <mxCell id="TlHQc8iveEWoduccsFiI-306" value="FK" style="shape=partialRectangle;connectable=0;fillColor=none;top=0;left=0;bottom=0;right=0;editable=1;overflow=hidden;" parent="TlHQc8iveEWoduccsFiI-305" vertex="1">
          <mxGeometry width="30" height="30" as="geometry" />
        </mxCell>
        <mxCell id="TlHQc8iveEWoduccsFiI-307" value="payment_id INT NOT NULL" style="shape=partialRectangle;connectable=0;fillColor=none;top=0;left=0;bottom=0;right=0;align=left;spacingLeft=6;overflow=hidden;" parent="TlHQc8iveEWoduccsFiI-305" vertex="1">
          <mxGeometry x="30" width="430" height="30" as="geometry" />
        </mxCell>
        <mxCell id="TlHQc8iveEWoduccsFiI-299" value="" style="shape=partialRectangle;collapsible=0;dropTarget=0;pointerEvents=0;fillColor=none;top=0;left=0;bottom=0;right=0;points=[[0,0.5],[1,0.5]];portConstraint=eastwest;" parent="TlHQc8iveEWoduccsFiI-289" vertex="1">
          <mxGeometry y="150" width="460" height="30" as="geometry" />
        </mxCell>
        <mxCell id="TlHQc8iveEWoduccsFiI-300" value="" style="shape=partialRectangle;connectable=0;fillColor=none;top=0;left=0;bottom=0;right=0;editable=1;overflow=hidden;" parent="TlHQc8iveEWoduccsFiI-299" vertex="1">
          <mxGeometry width="30" height="30" as="geometry" />
        </mxCell>
        <mxCell id="TlHQc8iveEWoduccsFiI-301" value="amount_of_gasoline DECIMAL NOT NULL (количество бензина в л)" style="shape=partialRectangle;connectable=0;fillColor=none;top=0;left=0;bottom=0;right=0;align=left;spacingLeft=6;overflow=hidden;" parent="TlHQc8iveEWoduccsFiI-299" vertex="1">
          <mxGeometry x="30" width="430" height="30" as="geometry" />
        </mxCell>
        <mxCell id="TlHQc8iveEWoduccsFiI-302" value="" style="shape=partialRectangle;collapsible=0;dropTarget=0;pointerEvents=0;fillColor=none;top=0;left=0;bottom=0;right=0;points=[[0,0.5],[1,0.5]];portConstraint=eastwest;" parent="TlHQc8iveEWoduccsFiI-289" vertex="1">
          <mxGeometry y="180" width="460" height="30" as="geometry" />
        </mxCell>
        <mxCell id="TlHQc8iveEWoduccsFiI-303" value="" style="shape=partialRectangle;connectable=0;fillColor=none;top=0;left=0;bottom=0;right=0;editable=1;overflow=hidden;" parent="TlHQc8iveEWoduccsFiI-302" vertex="1">
          <mxGeometry width="30" height="30" as="geometry" />
        </mxCell>
        <mxCell id="TlHQc8iveEWoduccsFiI-304" value="" style="shape=partialRectangle;connectable=0;fillColor=none;top=0;left=0;bottom=0;right=0;align=left;spacingLeft=6;overflow=hidden;" parent="TlHQc8iveEWoduccsFiI-302" vertex="1">
          <mxGeometry x="30" width="430" height="30" as="geometry" />
        </mxCell>
        <mxCell id="TlHQc8iveEWoduccsFiI-308" value="" style="edgeStyle=orthogonalEdgeStyle;fontSize=12;html=1;endArrow=ERmandOne;startArrow=ERmandOne;entryX=0;entryY=0.5;entryDx=0;entryDy=0;exitX=0;exitY=0.5;exitDx=0;exitDy=0;" parent="1" source="TlHQc8iveEWoduccsFiI-194" target="TlHQc8iveEWoduccsFiI-305" edge="1">
          <mxGeometry width="100" height="100" relative="1" as="geometry">
            <mxPoint x="1270" y="420" as="sourcePoint" />
            <mxPoint x="1370" y="320" as="targetPoint" />
          </mxGeometry>
        </mxCell>
        <mxCell id="Il9QLbK23yO8a5Af8rnY-2" value="" style="edgeStyle=orthogonalEdgeStyle;fontSize=12;html=1;endArrow=ERoneToMany;entryX=0;entryY=0.5;entryDx=0;entryDy=0;exitX=0;exitY=0.5;exitDx=0;exitDy=0;" parent="1" source="TlHQc8iveEWoduccsFiI-7" target="TlHQc8iveEWoduccsFiI-293" edge="1">
          <mxGeometry width="100" height="100" relative="1" as="geometry">
            <mxPoint x="1380" y="620" as="sourcePoint" />
            <mxPoint x="1480" y="520" as="targetPoint" />
            <Array as="points">
              <mxPoint x="2250" y="615" />
              <mxPoint x="2250" y="560" />
              <mxPoint x="1540" y="560" />
              <mxPoint x="1540" y="395" />
            </Array>
          </mxGeometry>
        </mxCell>
        <mxCell id="Il9QLbK23yO8a5Af8rnY-3" value="" style="edgeStyle=orthogonalEdgeStyle;fontSize=12;html=1;endArrow=ERoneToMany;exitX=0;exitY=0.5;exitDx=0;exitDy=0;entryX=0;entryY=0.5;entryDx=0;entryDy=0;" parent="1" source="1oH-_9PxXLcQLjHo9UL6-86" target="TlHQc8iveEWoduccsFiI-296" edge="1">
          <mxGeometry width="100" height="100" relative="1" as="geometry">
            <mxPoint x="1300" y="320" as="sourcePoint" />
            <mxPoint x="1400" y="220" as="targetPoint" />
            <Array as="points">
              <mxPoint x="1520" y="75" />
              <mxPoint x="1520" y="365" />
            </Array>
          </mxGeometry>
        </mxCell>
        <mxCell id="Xs_57g-lstWxM0ESq4aY-1" value="FK" style="shape=partialRectangle;connectable=0;fillColor=none;top=0;left=0;bottom=0;right=0;editable=1;overflow=hidden;" parent="1" vertex="1">
          <mxGeometry x="655" y="-700" width="30" height="30" as="geometry" />
        </mxCell>
        <mxCell id="pk5Nn4hVFE5nRobfzItY-1" value="address_id INT NOT NULL" style="shape=partialRectangle;connectable=0;fillColor=none;top=0;left=0;bottom=0;right=0;align=left;spacingLeft=6;overflow=hidden;" parent="1" vertex="1">
          <mxGeometry x="1620" y="470" width="429.99999999999955" height="30" as="geometry" />
        </mxCell>
        <mxCell id="pk5Nn4hVFE5nRobfzItY-2" value="FK" style="shape=partialRectangle;connectable=0;fillColor=none;top=0;left=0;bottom=0;right=0;editable=1;overflow=hidden;" parent="1" vertex="1">
          <mxGeometry x="1590" y="470" width="30" height="30" as="geometry" />
        </mxCell>
        <mxCell id="pk5Nn4hVFE5nRobfzItY-3" value="" style="edgeStyle=orthogonalEdgeStyle;fontSize=12;html=1;endArrow=ERmandOne;startArrow=ERmandOne;exitX=1;exitY=0.5;exitDx=0;exitDy=0;" parent="1" edge="1">
          <mxGeometry width="100" height="100" relative="1" as="geometry">
            <mxPoint x="390" y="545" as="sourcePoint" />
            <mxPoint x="1590" y="520" as="targetPoint" />
            <Array as="points">
              <mxPoint x="570" y="545" />
              <mxPoint x="570" y="675" />
              <mxPoint x="1510" y="675" />
              <mxPoint x="1510" y="520" />
              <mxPoint x="1590" y="520" />
            </Array>
          </mxGeometry>
        </mxCell>
        <mxCell id="0wSEDrk3ngSRInVN8gp5-1" value="time_create TIMESTAMP NOT NULL" style="shape=partialRectangle;connectable=0;fillColor=none;top=0;left=0;bottom=0;right=0;align=left;spacingLeft=6;overflow=hidden;" parent="1" vertex="1">
          <mxGeometry x="-190" y="120" width="210" height="30" as="geometry" />
        </mxCell>
        <mxCell id="0wSEDrk3ngSRInVN8gp5-3" value="time_create TIMESTAMP NOT NULL" style="shape=partialRectangle;connectable=0;fillColor=none;top=0;left=0;bottom=0;right=0;align=left;spacingLeft=6;overflow=hidden;" parent="1" vertex="1">
          <mxGeometry x="-190" y="250" width="210" height="30" as="geometry" />
        </mxCell>
        <mxCell id="0wSEDrk3ngSRInVN8gp5-4" value="time_create TIMESTAMP NOT NULL" style="shape=partialRectangle;connectable=0;fillColor=none;top=0;left=0;bottom=0;right=0;align=left;spacingLeft=6;overflow=hidden;" parent="1" vertex="1">
          <mxGeometry x="130" y="270" width="220" height="30" as="geometry" />
        </mxCell>
        <mxCell id="0wSEDrk3ngSRInVN8gp5-6" value="time_create TIMESTAMP NOT NULL" style="shape=partialRectangle;connectable=0;fillColor=none;top=0;left=0;bottom=0;right=0;align=left;spacingLeft=6;overflow=hidden;" parent="1" vertex="1">
          <mxGeometry x="150" y="780" width="210" height="30" as="geometry" />
        </mxCell>
        <mxCell id="0wSEDrk3ngSRInVN8gp5-7" value="time_create TIMESTAMP NOT NULL" style="shape=partialRectangle;connectable=0;fillColor=none;top=0;left=0;bottom=0;right=0;align=left;spacingLeft=6;overflow=hidden;" parent="1" vertex="1">
          <mxGeometry x="150" y="620" width="210" height="30" as="geometry" />
        </mxCell>
        <mxCell id="0wSEDrk3ngSRInVN8gp5-10" value="time_create TIMESTAMP NOT NULL" style="shape=partialRectangle;connectable=0;fillColor=none;top=0;left=0;bottom=0;right=0;align=left;spacingLeft=6;overflow=hidden;" parent="1" vertex="1">
          <mxGeometry x="150" y="940" width="210" height="30" as="geometry" />
        </mxCell>
        <mxCell id="0wSEDrk3ngSRInVN8gp5-11" value="time_create TIMESTAMP NOT NULL" style="shape=partialRectangle;connectable=0;fillColor=none;top=0;left=0;bottom=0;right=0;align=left;spacingLeft=6;overflow=hidden;" parent="1" vertex="1">
          <mxGeometry x="150" y="1070" width="210" height="30" as="geometry" />
        </mxCell>
        <mxCell id="0wSEDrk3ngSRInVN8gp5-13" value="time_create TIMESTAMP NOT NULL" style="shape=partialRectangle;connectable=0;fillColor=none;top=0;left=0;bottom=0;right=0;align=left;spacingLeft=6;overflow=hidden;" parent="1" vertex="1">
          <mxGeometry x="685" y="-850" width="220" height="30" as="geometry" />
        </mxCell>
        <mxCell id="0wSEDrk3ngSRInVN8gp5-17" value="time_create TIMESTAMP NOT NULL" style="shape=partialRectangle;connectable=0;fillColor=none;top=0;left=0;bottom=0;right=0;align=left;spacingLeft=6;overflow=hidden;" parent="1" vertex="1">
          <mxGeometry x="685" y="-440" width="230" height="30" as="geometry" />
        </mxCell>
        <mxCell id="0wSEDrk3ngSRInVN8gp5-18" value="time_create TIMESTAMP NOT NULL" style="shape=partialRectangle;connectable=0;fillColor=none;top=0;left=0;bottom=0;right=0;align=left;spacingLeft=6;overflow=hidden;" parent="1" vertex="1">
          <mxGeometry x="685" y="-190" width="230" height="30" as="geometry" />
        </mxCell>
        <mxCell id="0wSEDrk3ngSRInVN8gp5-19" value="time_create TIMESTAMP NOT NULL" style="shape=partialRectangle;connectable=0;fillColor=none;top=0;left=0;bottom=0;right=0;align=left;spacingLeft=6;overflow=hidden;" parent="1" vertex="1">
          <mxGeometry x="970" y="160" width="230" height="30" as="geometry" />
        </mxCell>
        <mxCell id="0wSEDrk3ngSRInVN8gp5-20" value="time_create TIMESTAMP NOT NULL" style="shape=partialRectangle;connectable=0;fillColor=none;top=0;left=0;bottom=0;right=0;align=left;spacingLeft=6;overflow=hidden;" parent="1" vertex="1">
          <mxGeometry x="1610" y="-940" width="230" height="30" as="geometry" />
        </mxCell>
        <mxCell id="0wSEDrk3ngSRInVN8gp5-21" value="time_create TIMESTAMP NOT NULL" style="shape=partialRectangle;connectable=0;fillColor=none;top=0;left=0;bottom=0;right=0;align=left;spacingLeft=6;fontStyle=0;overflow=hidden;" parent="1" vertex="1">
          <mxGeometry x="1610" y="-800" width="230" height="30" as="geometry" />
        </mxCell>
        <mxCell id="0wSEDrk3ngSRInVN8gp5-23" value="time_create TIMESTAMP NOT NULL" style="shape=partialRectangle;connectable=0;fillColor=none;top=0;left=0;bottom=0;right=0;align=left;spacingLeft=6;overflow=hidden;" parent="1" vertex="1">
          <mxGeometry x="1620" y="240" width="430" height="30" as="geometry" />
        </mxCell>
        <mxCell id="0wSEDrk3ngSRInVN8gp5-25" value="time_create TIMESTAMP NOT NULL" style="shape=partialRectangle;connectable=0;fillColor=none;top=0;left=0;bottom=0;right=0;align=left;spacingLeft=6;overflow=hidden;" parent="1" vertex="1">
          <mxGeometry x="1620" y="500" width="430" height="30" as="geometry" />
        </mxCell>
        <mxCell id="0wSEDrk3ngSRInVN8gp5-26" value="time_create TIMESTAMP NOT NULL" style="shape=partialRectangle;connectable=0;fillColor=none;top=0;left=0;bottom=0;right=0;align=left;spacingLeft=6;overflow=hidden;" parent="1" vertex="1">
          <mxGeometry x="2310" y="120" width="210" height="30" as="geometry" />
        </mxCell>
        <mxCell id="0wSEDrk3ngSRInVN8gp5-27" value="time_create TIMESTAMP NOT NULL" style="shape=partialRectangle;connectable=0;fillColor=none;top=0;left=0;bottom=0;right=0;align=left;spacingLeft=6;overflow=hidden;" parent="1" vertex="1">
          <mxGeometry x="2310" y="250" width="210" height="30" as="geometry" />
        </mxCell>
        <mxCell id="0wSEDrk3ngSRInVN8gp5-28" value="time_create TIMESTAMP NOT NULL" style="shape=partialRectangle;connectable=0;fillColor=none;top=0;left=0;bottom=0;right=0;align=left;spacingLeft=6;overflow=hidden;" parent="1" vertex="1">
          <mxGeometry x="2305" y="520" width="405" height="30" as="geometry" />
        </mxCell>
        <mxCell id="0wSEDrk3ngSRInVN8gp5-29" value="time_create TIMESTAMP NOT NULL" style="shape=partialRectangle;connectable=0;fillColor=none;top=0;left=0;bottom=0;right=0;align=left;spacingLeft=6;overflow=hidden;" parent="1" vertex="1">
          <mxGeometry x="1840" y="690" width="280" height="30" as="geometry" />
        </mxCell>
        <mxCell id="0wSEDrk3ngSRInVN8gp5-30" value="time_create TIMESTAMP NOT NULL" style="shape=partialRectangle;connectable=0;fillColor=none;top=0;left=0;bottom=0;right=0;align=left;spacingLeft=6;overflow=hidden;" parent="1" vertex="1">
          <mxGeometry x="2320" y="840" width="390" height="30" as="geometry" />
        </mxCell>
        <mxCell id="0wSEDrk3ngSRInVN8gp5-33" value="&lt;font style=&quot;font-size: 24px&quot;&gt;На каждом поле &quot;time_create TIMESTAMP NOT NULL&quot; должен быть триггер, который ставит текущую дату.&lt;/font&gt;" style="rounded=1;whiteSpace=wrap;html=1;align=left;" parent="1" vertex="1">
          <mxGeometry x="845" y="-1220" width="860" height="60" as="geometry" />
        </mxCell>
        <mxCell id="UWIK8WVK70v-hArUyWBI-1" value="car_color" style="shape=table;startSize=30;container=1;collapsible=1;childLayout=tableLayout;fixedRows=1;rowLines=0;fontStyle=1;align=center;resizeLast=1;" parent="1" vertex="1">
          <mxGeometry x="2840" y="595" width="420" height="250" as="geometry" />
        </mxCell>
        <mxCell id="UWIK8WVK70v-hArUyWBI-2" value="" style="shape=partialRectangle;collapsible=0;dropTarget=0;pointerEvents=0;fillColor=none;top=0;left=0;bottom=1;right=0;points=[[0,0.5],[1,0.5]];portConstraint=eastwest;" parent="UWIK8WVK70v-hArUyWBI-1" vertex="1">
          <mxGeometry y="30" width="420" height="30" as="geometry" />
        </mxCell>
        <mxCell id="UWIK8WVK70v-hArUyWBI-3" value="PK" style="shape=partialRectangle;connectable=0;fillColor=none;top=0;left=0;bottom=0;right=0;fontStyle=1;overflow=hidden;" parent="UWIK8WVK70v-hArUyWBI-2" vertex="1">
          <mxGeometry width="30" height="30" as="geometry">
            <mxRectangle width="30" height="30" as="alternateBounds" />
          </mxGeometry>
        </mxCell>
        <mxCell id="UWIK8WVK70v-hArUyWBI-4" value="id INT NOT NULL" style="shape=partialRectangle;connectable=0;fillColor=none;top=0;left=0;bottom=0;right=0;align=left;spacingLeft=6;fontStyle=5;overflow=hidden;" parent="UWIK8WVK70v-hArUyWBI-2" vertex="1">
          <mxGeometry x="30" width="390" height="30" as="geometry">
            <mxRectangle width="390" height="30" as="alternateBounds" />
          </mxGeometry>
        </mxCell>
        <mxCell id="UWIK8WVK70v-hArUyWBI-5" value="" style="shape=partialRectangle;collapsible=0;dropTarget=0;pointerEvents=0;fillColor=none;top=0;left=0;bottom=0;right=0;points=[[0,0.5],[1,0.5]];portConstraint=eastwest;" parent="UWIK8WVK70v-hArUyWBI-1" vertex="1">
          <mxGeometry y="60" width="420" height="30" as="geometry" />
        </mxCell>
        <mxCell id="UWIK8WVK70v-hArUyWBI-6" value="" style="shape=partialRectangle;connectable=0;fillColor=none;top=0;left=0;bottom=0;right=0;editable=1;overflow=hidden;" parent="UWIK8WVK70v-hArUyWBI-5" vertex="1">
          <mxGeometry width="30" height="30" as="geometry">
            <mxRectangle width="30" height="30" as="alternateBounds" />
          </mxGeometry>
        </mxCell>
        <mxCell id="UWIK8WVK70v-hArUyWBI-7" value="" style="shape=partialRectangle;connectable=0;fillColor=none;top=0;left=0;bottom=0;right=0;align=left;spacingLeft=6;overflow=hidden;" parent="UWIK8WVK70v-hArUyWBI-5" vertex="1">
          <mxGeometry x="30" width="390" height="30" as="geometry">
            <mxRectangle width="390" height="30" as="alternateBounds" />
          </mxGeometry>
        </mxCell>
        <mxCell id="UWIK8WVK70v-hArUyWBI-8" value="" style="shape=partialRectangle;collapsible=0;dropTarget=0;pointerEvents=0;fillColor=none;top=0;left=0;bottom=0;right=0;points=[[0,0.5],[1,0.5]];portConstraint=eastwest;" parent="UWIK8WVK70v-hArUyWBI-1" vertex="1">
          <mxGeometry y="90" width="420" height="30" as="geometry" />
        </mxCell>
        <mxCell id="UWIK8WVK70v-hArUyWBI-9" value="" style="shape=partialRectangle;connectable=0;fillColor=none;top=0;left=0;bottom=0;right=0;editable=1;overflow=hidden;" parent="UWIK8WVK70v-hArUyWBI-8" vertex="1">
          <mxGeometry width="30" height="30" as="geometry">
            <mxRectangle width="30" height="30" as="alternateBounds" />
          </mxGeometry>
        </mxCell>
        <mxCell id="UWIK8WVK70v-hArUyWBI-10" value="" style="shape=partialRectangle;connectable=0;fillColor=none;top=0;left=0;bottom=0;right=0;align=left;spacingLeft=6;overflow=hidden;" parent="UWIK8WVK70v-hArUyWBI-8" vertex="1">
          <mxGeometry x="30" width="390" height="30" as="geometry">
            <mxRectangle width="390" height="30" as="alternateBounds" />
          </mxGeometry>
        </mxCell>
        <mxCell id="UWIK8WVK70v-hArUyWBI-11" value="" style="shape=partialRectangle;collapsible=0;dropTarget=0;pointerEvents=0;fillColor=none;top=0;left=0;bottom=0;right=0;points=[[0,0.5],[1,0.5]];portConstraint=eastwest;" parent="UWIK8WVK70v-hArUyWBI-1" vertex="1">
          <mxGeometry y="120" width="420" height="20" as="geometry" />
        </mxCell>
        <mxCell id="UWIK8WVK70v-hArUyWBI-12" value="" style="shape=partialRectangle;connectable=0;fillColor=none;top=0;left=0;bottom=0;right=0;editable=1;overflow=hidden;" parent="UWIK8WVK70v-hArUyWBI-11" vertex="1">
          <mxGeometry width="30" height="20" as="geometry">
            <mxRectangle width="30" height="20" as="alternateBounds" />
          </mxGeometry>
        </mxCell>
        <mxCell id="UWIK8WVK70v-hArUyWBI-13" value="color varchar2(20) NOT NULL" style="shape=partialRectangle;connectable=0;fillColor=none;top=0;left=0;bottom=0;right=0;align=left;spacingLeft=6;overflow=hidden;" parent="UWIK8WVK70v-hArUyWBI-11" vertex="1">
          <mxGeometry x="30" width="390" height="20" as="geometry">
            <mxRectangle width="390" height="20" as="alternateBounds" />
          </mxGeometry>
        </mxCell>
        <mxCell id="UWIK8WVK70v-hArUyWBI-14" value="" style="shape=partialRectangle;collapsible=0;dropTarget=0;pointerEvents=0;fillColor=none;top=0;left=0;bottom=0;right=0;points=[[0,0.5],[1,0.5]];portConstraint=eastwest;" parent="UWIK8WVK70v-hArUyWBI-1" vertex="1">
          <mxGeometry y="140" width="420" height="30" as="geometry" />
        </mxCell>
        <mxCell id="UWIK8WVK70v-hArUyWBI-15" value="" style="shape=partialRectangle;connectable=0;fillColor=none;top=0;left=0;bottom=0;right=0;editable=1;overflow=hidden;" parent="UWIK8WVK70v-hArUyWBI-14" vertex="1">
          <mxGeometry width="30" height="30" as="geometry">
            <mxRectangle width="30" height="30" as="alternateBounds" />
          </mxGeometry>
        </mxCell>
        <mxCell id="UWIK8WVK70v-hArUyWBI-16" value="" style="shape=partialRectangle;connectable=0;fillColor=none;top=0;left=0;bottom=0;right=0;align=left;spacingLeft=6;overflow=hidden;" parent="UWIK8WVK70v-hArUyWBI-14" vertex="1">
          <mxGeometry x="30" width="390" height="30" as="geometry">
            <mxRectangle width="390" height="30" as="alternateBounds" />
          </mxGeometry>
        </mxCell>
        <mxCell id="UWIK8WVK70v-hArUyWBI-17" value="" style="shape=partialRectangle;collapsible=0;dropTarget=0;pointerEvents=0;fillColor=none;top=0;left=0;bottom=0;right=0;points=[[0,0.5],[1,0.5]];portConstraint=eastwest;" parent="UWIK8WVK70v-hArUyWBI-1" vertex="1">
          <mxGeometry y="170" width="420" height="30" as="geometry" />
        </mxCell>
        <mxCell id="UWIK8WVK70v-hArUyWBI-18" value="" style="shape=partialRectangle;connectable=0;fillColor=none;top=0;left=0;bottom=0;right=0;editable=1;overflow=hidden;" parent="UWIK8WVK70v-hArUyWBI-17" vertex="1">
          <mxGeometry width="30" height="30" as="geometry">
            <mxRectangle width="30" height="30" as="alternateBounds" />
          </mxGeometry>
        </mxCell>
        <mxCell id="UWIK8WVK70v-hArUyWBI-19" value="" style="shape=partialRectangle;connectable=0;fillColor=none;top=0;left=0;bottom=0;right=0;align=left;spacingLeft=6;overflow=hidden;" parent="UWIK8WVK70v-hArUyWBI-17" vertex="1">
          <mxGeometry x="30" width="390" height="30" as="geometry">
            <mxRectangle width="390" height="30" as="alternateBounds" />
          </mxGeometry>
        </mxCell>
        <mxCell id="UWIK8WVK70v-hArUyWBI-20" value="" style="shape=partialRectangle;collapsible=0;dropTarget=0;pointerEvents=0;fillColor=none;top=0;left=0;bottom=0;right=0;points=[[0,0.5],[1,0.5]];portConstraint=eastwest;" parent="UWIK8WVK70v-hArUyWBI-1" vertex="1">
          <mxGeometry y="200" width="420" height="20" as="geometry" />
        </mxCell>
        <mxCell id="UWIK8WVK70v-hArUyWBI-21" value="" style="shape=partialRectangle;connectable=0;fillColor=none;top=0;left=0;bottom=0;right=0;editable=1;overflow=hidden;" parent="UWIK8WVK70v-hArUyWBI-20" vertex="1">
          <mxGeometry width="30" height="20" as="geometry">
            <mxRectangle width="30" height="20" as="alternateBounds" />
          </mxGeometry>
        </mxCell>
        <mxCell id="UWIK8WVK70v-hArUyWBI-22" value="" style="shape=partialRectangle;connectable=0;fillColor=none;top=0;left=0;bottom=0;right=0;align=left;spacingLeft=6;overflow=hidden;" parent="UWIK8WVK70v-hArUyWBI-20" vertex="1">
          <mxGeometry x="30" width="390" height="20" as="geometry">
            <mxRectangle width="390" height="20" as="alternateBounds" />
          </mxGeometry>
        </mxCell>
        <mxCell id="UWIK8WVK70v-hArUyWBI-23" value="" style="shape=partialRectangle;collapsible=0;dropTarget=0;pointerEvents=0;fillColor=none;top=0;left=0;bottom=0;right=0;points=[[0,0.5],[1,0.5]];portConstraint=eastwest;" parent="UWIK8WVK70v-hArUyWBI-1" vertex="1">
          <mxGeometry y="220" width="420" height="30" as="geometry" />
        </mxCell>
        <mxCell id="UWIK8WVK70v-hArUyWBI-24" value="" style="shape=partialRectangle;connectable=0;fillColor=none;top=0;left=0;bottom=0;right=0;editable=1;overflow=hidden;" parent="UWIK8WVK70v-hArUyWBI-23" vertex="1">
          <mxGeometry width="30" height="30" as="geometry">
            <mxRectangle width="30" height="30" as="alternateBounds" />
          </mxGeometry>
        </mxCell>
        <mxCell id="UWIK8WVK70v-hArUyWBI-25" value="" style="shape=partialRectangle;connectable=0;fillColor=none;top=0;left=0;bottom=0;right=0;align=left;spacingLeft=6;overflow=hidden;" parent="UWIK8WVK70v-hArUyWBI-23" vertex="1">
          <mxGeometry x="30" width="390" height="30" as="geometry">
            <mxRectangle width="390" height="30" as="alternateBounds" />
          </mxGeometry>
        </mxCell>
        <mxCell id="UWIK8WVK70v-hArUyWBI-27" style="edgeStyle=orthogonalEdgeStyle;rounded=0;orthogonalLoop=1;jettySize=auto;html=1;exitX=0;exitY=0.5;exitDx=0;exitDy=0;entryX=1;entryY=0.5;entryDx=0;entryDy=0;" parent="1" source="UWIK8WVK70v-hArUyWBI-8" target="TlHQc8iveEWoduccsFiI-16" edge="1">
          <mxGeometry relative="1" as="geometry">
            <Array as="points">
              <mxPoint x="2840" y="705" />
            </Array>
          </mxGeometry>
        </mxCell>
        <mxCell id="UWIK8WVK70v-hArUyWBI-28" value="payment_type" style="shape=table;startSize=30;container=1;collapsible=1;childLayout=tableLayout;fixedRows=1;rowLines=0;fontStyle=1;align=center;resizeLast=1;" parent="1" vertex="1">
          <mxGeometry x="590" y="80" width="270" height="180" as="geometry" />
        </mxCell>
        <mxCell id="UWIK8WVK70v-hArUyWBI-29" value="" style="shape=partialRectangle;collapsible=0;dropTarget=0;pointerEvents=0;fillColor=none;top=0;left=0;bottom=1;right=0;points=[[0,0.5],[1,0.5]];portConstraint=eastwest;" parent="UWIK8WVK70v-hArUyWBI-28" vertex="1">
          <mxGeometry y="30" width="270" height="30" as="geometry" />
        </mxCell>
        <mxCell id="UWIK8WVK70v-hArUyWBI-30" value="PK" style="shape=partialRectangle;connectable=0;fillColor=none;top=0;left=0;bottom=0;right=0;fontStyle=1;overflow=hidden;" parent="UWIK8WVK70v-hArUyWBI-29" vertex="1">
          <mxGeometry width="30" height="30" as="geometry">
            <mxRectangle width="30" height="30" as="alternateBounds" />
          </mxGeometry>
        </mxCell>
        <mxCell id="UWIK8WVK70v-hArUyWBI-31" value="id INT NOT NULL" style="shape=partialRectangle;connectable=0;fillColor=none;top=0;left=0;bottom=0;right=0;align=left;spacingLeft=6;fontStyle=5;overflow=hidden;" parent="UWIK8WVK70v-hArUyWBI-29" vertex="1">
          <mxGeometry x="30" width="240" height="30" as="geometry">
            <mxRectangle width="240" height="30" as="alternateBounds" />
          </mxGeometry>
        </mxCell>
        <mxCell id="UWIK8WVK70v-hArUyWBI-32" value="" style="shape=partialRectangle;collapsible=0;dropTarget=0;pointerEvents=0;fillColor=none;top=0;left=0;bottom=0;right=0;points=[[0,0.5],[1,0.5]];portConstraint=eastwest;" parent="UWIK8WVK70v-hArUyWBI-28" vertex="1">
          <mxGeometry y="60" width="270" height="30" as="geometry" />
        </mxCell>
        <mxCell id="UWIK8WVK70v-hArUyWBI-33" value="" style="shape=partialRectangle;connectable=0;fillColor=none;top=0;left=0;bottom=0;right=0;editable=1;overflow=hidden;" parent="UWIK8WVK70v-hArUyWBI-32" vertex="1">
          <mxGeometry width="30" height="30" as="geometry">
            <mxRectangle width="30" height="30" as="alternateBounds" />
          </mxGeometry>
        </mxCell>
        <mxCell id="UWIK8WVK70v-hArUyWBI-34" value="" style="shape=partialRectangle;connectable=0;fillColor=none;top=0;left=0;bottom=0;right=0;align=left;spacingLeft=6;overflow=hidden;" parent="UWIK8WVK70v-hArUyWBI-32" vertex="1">
          <mxGeometry x="30" width="240" height="30" as="geometry">
            <mxRectangle width="240" height="30" as="alternateBounds" />
          </mxGeometry>
        </mxCell>
        <mxCell id="UWIK8WVK70v-hArUyWBI-35" value="" style="shape=partialRectangle;collapsible=0;dropTarget=0;pointerEvents=0;fillColor=none;top=0;left=0;bottom=0;right=0;points=[[0,0.5],[1,0.5]];portConstraint=eastwest;" parent="UWIK8WVK70v-hArUyWBI-28" vertex="1">
          <mxGeometry y="90" width="270" height="30" as="geometry" />
        </mxCell>
        <mxCell id="UWIK8WVK70v-hArUyWBI-36" value="" style="shape=partialRectangle;connectable=0;fillColor=none;top=0;left=0;bottom=0;right=0;editable=1;overflow=hidden;" parent="UWIK8WVK70v-hArUyWBI-35" vertex="1">
          <mxGeometry width="30" height="30" as="geometry">
            <mxRectangle width="30" height="30" as="alternateBounds" />
          </mxGeometry>
        </mxCell>
        <mxCell id="UWIK8WVK70v-hArUyWBI-37" value="" style="shape=partialRectangle;connectable=0;fillColor=none;top=0;left=0;bottom=0;right=0;align=left;spacingLeft=6;overflow=hidden;" parent="UWIK8WVK70v-hArUyWBI-35" vertex="1">
          <mxGeometry x="30" width="240" height="30" as="geometry">
            <mxRectangle width="240" height="30" as="alternateBounds" />
          </mxGeometry>
        </mxCell>
        <mxCell id="UWIK8WVK70v-hArUyWBI-38" value="" style="shape=partialRectangle;collapsible=0;dropTarget=0;pointerEvents=0;fillColor=none;top=0;left=0;bottom=0;right=0;points=[[0,0.5],[1,0.5]];portConstraint=eastwest;" parent="UWIK8WVK70v-hArUyWBI-28" vertex="1">
          <mxGeometry y="120" width="270" height="30" as="geometry" />
        </mxCell>
        <mxCell id="UWIK8WVK70v-hArUyWBI-39" value="" style="shape=partialRectangle;connectable=0;fillColor=none;top=0;left=0;bottom=0;right=0;editable=1;overflow=hidden;" parent="UWIK8WVK70v-hArUyWBI-38" vertex="1">
          <mxGeometry width="30" height="30" as="geometry">
            <mxRectangle width="30" height="30" as="alternateBounds" />
          </mxGeometry>
        </mxCell>
        <mxCell id="UWIK8WVK70v-hArUyWBI-40" value="type_name           varchar2(8)" style="shape=partialRectangle;connectable=0;fillColor=none;top=0;left=0;bottom=0;right=0;align=left;spacingLeft=6;overflow=hidden;" parent="UWIK8WVK70v-hArUyWBI-38" vertex="1">
          <mxGeometry x="30" width="240" height="30" as="geometry">
            <mxRectangle width="240" height="30" as="alternateBounds" />
          </mxGeometry>
        </mxCell>
        <mxCell id="UWIK8WVK70v-hArUyWBI-41" value="time_create TIMESTAMP NOT NULL" style="shape=partialRectangle;connectable=0;fillColor=none;top=0;left=0;bottom=0;right=0;align=left;spacingLeft=6;overflow=hidden;" parent="1" vertex="1">
          <mxGeometry x="620" y="230" width="230" height="30" as="geometry" />
        </mxCell>
        <mxCell id="UWIK8WVK70v-hArUyWBI-42" style="edgeStyle=orthogonalEdgeStyle;rounded=0;orthogonalLoop=1;jettySize=auto;html=1;exitX=1;exitY=0.5;exitDx=0;exitDy=0;" parent="1" source="UWIK8WVK70v-hArUyWBI-38" target="TlHQc8iveEWoduccsFiI-208" edge="1">
          <mxGeometry relative="1" as="geometry" />
        </mxCell>
        <mxCell id="UWIK8WVK70v-hArUyWBI-43" value="order_status" style="shape=table;startSize=30;container=1;collapsible=1;childLayout=tableLayout;fixedRows=1;rowLines=0;fontStyle=1;align=center;resizeLast=1;" parent="1" vertex="1">
          <mxGeometry x="150" y="-650" width="270" height="180" as="geometry" />
        </mxCell>
        <mxCell id="UWIK8WVK70v-hArUyWBI-44" value="" style="shape=partialRectangle;collapsible=0;dropTarget=0;pointerEvents=0;fillColor=none;top=0;left=0;bottom=1;right=0;points=[[0,0.5],[1,0.5]];portConstraint=eastwest;" parent="UWIK8WVK70v-hArUyWBI-43" vertex="1">
          <mxGeometry y="30" width="270" height="30" as="geometry" />
        </mxCell>
        <mxCell id="UWIK8WVK70v-hArUyWBI-45" value="PK" style="shape=partialRectangle;connectable=0;fillColor=none;top=0;left=0;bottom=0;right=0;fontStyle=1;overflow=hidden;" parent="UWIK8WVK70v-hArUyWBI-44" vertex="1">
          <mxGeometry width="30" height="30" as="geometry">
            <mxRectangle width="30" height="30" as="alternateBounds" />
          </mxGeometry>
        </mxCell>
        <mxCell id="UWIK8WVK70v-hArUyWBI-46" value="id INT NOT NULL" style="shape=partialRectangle;connectable=0;fillColor=none;top=0;left=0;bottom=0;right=0;align=left;spacingLeft=6;fontStyle=5;overflow=hidden;" parent="UWIK8WVK70v-hArUyWBI-44" vertex="1">
          <mxGeometry x="30" width="240" height="30" as="geometry">
            <mxRectangle width="240" height="30" as="alternateBounds" />
          </mxGeometry>
        </mxCell>
        <mxCell id="UWIK8WVK70v-hArUyWBI-47" value="" style="shape=partialRectangle;collapsible=0;dropTarget=0;pointerEvents=0;fillColor=none;top=0;left=0;bottom=0;right=0;points=[[0,0.5],[1,0.5]];portConstraint=eastwest;" parent="UWIK8WVK70v-hArUyWBI-43" vertex="1">
          <mxGeometry y="60" width="270" height="30" as="geometry" />
        </mxCell>
        <mxCell id="UWIK8WVK70v-hArUyWBI-48" value="" style="shape=partialRectangle;connectable=0;fillColor=none;top=0;left=0;bottom=0;right=0;editable=1;overflow=hidden;" parent="UWIK8WVK70v-hArUyWBI-47" vertex="1">
          <mxGeometry width="30" height="30" as="geometry">
            <mxRectangle width="30" height="30" as="alternateBounds" />
          </mxGeometry>
        </mxCell>
        <mxCell id="UWIK8WVK70v-hArUyWBI-49" value="" style="shape=partialRectangle;connectable=0;fillColor=none;top=0;left=0;bottom=0;right=0;align=left;spacingLeft=6;overflow=hidden;" parent="UWIK8WVK70v-hArUyWBI-47" vertex="1">
          <mxGeometry x="30" width="240" height="30" as="geometry">
            <mxRectangle width="240" height="30" as="alternateBounds" />
          </mxGeometry>
        </mxCell>
        <mxCell id="UWIK8WVK70v-hArUyWBI-50" value="" style="shape=partialRectangle;collapsible=0;dropTarget=0;pointerEvents=0;fillColor=none;top=0;left=0;bottom=0;right=0;points=[[0,0.5],[1,0.5]];portConstraint=eastwest;" parent="UWIK8WVK70v-hArUyWBI-43" vertex="1">
          <mxGeometry y="90" width="270" height="30" as="geometry" />
        </mxCell>
        <mxCell id="UWIK8WVK70v-hArUyWBI-51" value="" style="shape=partialRectangle;connectable=0;fillColor=none;top=0;left=0;bottom=0;right=0;editable=1;overflow=hidden;" parent="UWIK8WVK70v-hArUyWBI-50" vertex="1">
          <mxGeometry width="30" height="30" as="geometry">
            <mxRectangle width="30" height="30" as="alternateBounds" />
          </mxGeometry>
        </mxCell>
        <mxCell id="UWIK8WVK70v-hArUyWBI-52" value="" style="shape=partialRectangle;connectable=0;fillColor=none;top=0;left=0;bottom=0;right=0;align=left;spacingLeft=6;overflow=hidden;" parent="UWIK8WVK70v-hArUyWBI-50" vertex="1">
          <mxGeometry x="30" width="240" height="30" as="geometry">
            <mxRectangle width="240" height="30" as="alternateBounds" />
          </mxGeometry>
        </mxCell>
        <mxCell id="UWIK8WVK70v-hArUyWBI-53" value="" style="shape=partialRectangle;collapsible=0;dropTarget=0;pointerEvents=0;fillColor=none;top=0;left=0;bottom=0;right=0;points=[[0,0.5],[1,0.5]];portConstraint=eastwest;" parent="UWIK8WVK70v-hArUyWBI-43" vertex="1">
          <mxGeometry y="120" width="270" height="30" as="geometry" />
        </mxCell>
        <mxCell id="UWIK8WVK70v-hArUyWBI-54" value="" style="shape=partialRectangle;connectable=0;fillColor=none;top=0;left=0;bottom=0;right=0;editable=1;overflow=hidden;" parent="UWIK8WVK70v-hArUyWBI-53" vertex="1">
          <mxGeometry width="30" height="30" as="geometry">
            <mxRectangle width="30" height="30" as="alternateBounds" />
          </mxGeometry>
        </mxCell>
        <mxCell id="UWIK8WVK70v-hArUyWBI-55" value="status_name         varchar2(32)" style="shape=partialRectangle;connectable=0;fillColor=none;top=0;left=0;bottom=0;right=0;align=left;spacingLeft=6;overflow=hidden;" parent="UWIK8WVK70v-hArUyWBI-53" vertex="1">
          <mxGeometry x="30" width="240" height="30" as="geometry">
            <mxRectangle width="240" height="30" as="alternateBounds" />
          </mxGeometry>
        </mxCell>
        <mxCell id="UWIK8WVK70v-hArUyWBI-56" value="time_create TIMESTAMP NOT NULL" style="shape=partialRectangle;connectable=0;fillColor=none;top=0;left=0;bottom=0;right=0;align=left;spacingLeft=6;overflow=hidden;" parent="1" vertex="1">
          <mxGeometry x="180" y="-500" width="230" height="30" as="geometry" />
        </mxCell>
        <mxCell id="UWIK8WVK70v-hArUyWBI-57" style="edgeStyle=orthogonalEdgeStyle;rounded=0;orthogonalLoop=1;jettySize=auto;html=1;exitX=1;exitY=0.5;exitDx=0;exitDy=0;" parent="1" source="UWIK8WVK70v-hArUyWBI-50" target="TlHQc8iveEWoduccsFiI-127" edge="1">
          <mxGeometry relative="1" as="geometry" />
        </mxCell>
      </root>
    </mxGraphModel>
  </diagram>
</mxfile>
